<svg id="icons" xmlns="http://www.w3.org/2000/svg" width="214.54" height="117.96" viewBox="0 0 214.54 117.96"><defs><style>.cls-1,.cls-2{fill:none;stroke:#222632;stroke-miterlimit:10;}.cls-1{stroke-width:2.44px;}.cls-2{stroke-width:2.49px;}</style></defs><title>reason-1</title><rect class="cls-1" x="139.46" y="74.71" width="15" height="15" transform="translate(293.91 164.43) rotate(180)"/><rect class="cls-1" x="166.46" y="86.71" width="15" height="15" transform="translate(347.91 188.43) rotate(180)"/><rect class="cls-1" x="189.46" y="86.71" width="15" height="15" transform="translate(393.91 188.43) rotate(180)"/><line class="cls-2" x1="207.46" y1="109.71" x2="203.46" y2="109.71"/><line class="cls-2" x1="138.46" y1="109.71" x2="134.46" y2="109.71"/><line class="cls-2" x1="150.46" y1="109.71" x2="146.46" y2="109.71"/><line class="cls-2" x1="161.46" y1="109.71" x2="157.46" y2="109.71"/><line class="cls-2" x1="173.46" y1="109.71" x2="169.46" y2="109.71"/><line class="cls-2" x1="184.46" y1="109.71" x2="180.46" y2="109.71"/><line class="cls-2" x1="196.46" y1="109.71" x2="192.46" y2="109.71"/><path class="cls-2" d="M213.3,109.21a7.5,7.5,0,0,0-7.5-7.5H134.55a7.5,7.5,0,0,0-7.5,7.5h0a7.5,7.5,0,0,0,7.5,7.5H205.8a7.5,7.5,0,0,0,7.5-7.5Z"/><polyline class="cls-2" points="154.71 81.75 162.46 77.88 162.46 64.32 146.96 56.57 131.46 64.32 131.46 77.88 139.21 81.75"/><line class="cls-2" x1="147.46" y1="41.71" x2="147.46" y2="56.71"/><path d="M29.36,115.78A32.75,32.75,0,0,1,18.2,113.9,27.07,27.07,0,0,1,2.38,99.06,31.15,31.15,0,0,1,0,86.43V29.52A31.91,31.91,0,0,1,2.38,16.89,25.93,25.93,0,0,1,8.86,7.63,29.1,29.1,0,0,1,18.2,2,31.49,31.49,0,0,1,29.36,0,31.5,31.5,0,0,1,40.51,2a29.15,29.15,0,0,1,9.35,5.66,26,26,0,0,1,6.48,9.27,32,32,0,0,1,2.38,12.63V86.43a31.19,31.19,0,0,1-2.38,12.63A27.07,27.07,0,0,1,40.51,113.9,32.76,32.76,0,0,1,29.36,115.78ZM54.94,30.46q0-12.12-7-19.49T29.36,3.61Q17.71,3.61,10.74,11t-7,19.49V85.16q0,12.12,7,19.57t18.61,7.45q11.64,0,18.61-7.45t7-19.57Z"/><path d="M105,5.74,87.41,17.06V12.14L104.8.82h4.26V115H105Z"/></svg>