<svg id="icons" xmlns="http://www.w3.org/2000/svg" width="218.11" height="116.14" viewBox="0 0 218.11 116.14"><defs><style>.cls-1{fill:none;stroke:#222632;stroke-miterlimit:10;stroke-width:2.24px;}</style></defs><title>reason-2</title><path class="cls-1" d="M213.36,116.14a15.84,15.84,0,0,0-.22-2.65l3.54-1.77-2.56-6.17-3.75,1.25a15.91,15.91,0,0,0-3.72-3.71l1.25-3.76-6.17-2.56L200,100.31a15.91,15.91,0,0,0-5.26,0l-1.77-3.54-6.17,2.56,1.25,3.75a15.92,15.92,0,0,0-3.71,3.72l-3.76-1.25L178,111.72l3.54,1.77a16,16,0,0,0-.22,2.64"/><path class="cls-1" d="M190.91,116.14a6.44,6.44,0,0,1,12.88,0"/><path class="cls-1" d="M149.46,103.49s.43-6-1.8-8.94c-7.65-9.84-8.12-19.21-8.12-19.87a20.28,20.28,0,1,1,40.55,0c0,.66-.49,10-8.13,19.87-2.24,3-1.85,8.92-1.85,8.94"/><line class="cls-1" x1="154.71" y1="103.4" x2="150.91" y2="79.92"/><line class="cls-1" x1="164.93" y1="103.41" x2="168.74" y2="79.92"/><polyline class="cls-1" points="151.15 80.97 152.91 82.45 154.66 80.97 156.42 82.45 158.18 80.97 159.94 82.45 161.69 80.97 163.46 82.45 165.22 80.97 166.98 82.45 168.74 80.97"/><line class="cls-1" x1="159.48" y1="40.21" x2="159.48" y2="47.67"/><line class="cls-1" x1="142.83" y1="45.53" x2="146.24" y2="51.44"/><line class="cls-1" x1="130.89" y1="57.84" x2="136.8" y2="61.25"/><line class="cls-1" x1="126.68" y1="74.5" x2="134.13" y2="74.5"/><line class="cls-1" x1="192.27" y1="73.01" x2="186.31" y2="73.01"/><line class="cls-1" x1="188.25" y1="56.96" x2="182.33" y2="60.37"/><line class="cls-1" x1="175.94" y1="45.03" x2="172.53" y2="50.94"/><line class="cls-1" x1="188.5" y1="90.41" x2="182.59" y2="87"/><line class="cls-1" x1="131.14" y1="91.29" x2="137.06" y2="87.88"/><path class="cls-1" d="M171.51,107.61a1.65,1.65,0,0,0-1.22-1.58,1.64,1.64,0,0,0-.38-3.22H150.53a1.64,1.64,0,0,0-.38,3.22,1.63,1.63,0,0,0,0,3.15,1.64,1.64,0,0,0,.38,3.22v.05a2.28,2.28,0,0,0,2.28,2.28h14.8a2.3,2.3,0,0,0,2.3-2.3v0a1.64,1.64,0,0,0,.38-3.22A1.64,1.64,0,0,0,171.51,107.61Z"/><line class="cls-1" x1="149.04" y1="105.8" x2="165.44" y2="105.8"/><line class="cls-1" x1="149.04" y1="110.27" x2="165.44" y2="110.27"/><path d="M29.36,115.78A32.75,32.75,0,0,1,18.2,113.9,27.07,27.07,0,0,1,2.38,99.06,31.15,31.15,0,0,1,0,86.43V29.52A31.91,31.91,0,0,1,2.38,16.89,25.93,25.93,0,0,1,8.86,7.63,29.1,29.1,0,0,1,18.2,2,31.49,31.49,0,0,1,29.36,0,31.5,31.5,0,0,1,40.51,2a29.15,29.15,0,0,1,9.35,5.66,26,26,0,0,1,6.48,9.27,32,32,0,0,1,2.38,12.63V86.43a31.19,31.19,0,0,1-2.38,12.63A27.07,27.07,0,0,1,40.51,113.9,32.76,32.76,0,0,1,29.36,115.78ZM54.94,30.46q0-12.12-7-19.49T29.36,3.61Q17.71,3.61,10.74,11t-7,19.49V85.16q0,12.12,7,19.57t18.61,7.45q11.64,0,18.61-7.45t7-19.57Z"/><path d="M74.78,21a28.82,28.82,0,0,1,4.35-8.45A29.41,29.41,0,0,1,85.85,6,31.5,31.5,0,0,1,94.22,1.8,29.6,29.6,0,0,1,103.48.33a34.48,34.48,0,0,1,12.79,2.21,27.94,27.94,0,0,1,9.35,5.9,24.23,24.23,0,0,1,5.66,8.45,26.93,26.93,0,0,1,1.89,10,35.85,35.85,0,0,1-1.8,10.91,34.77,34.77,0,0,1-5.74,10.74L78.06,111h54.45V115H73.31v-4.1l49-64.29a20.26,20.26,0,0,0,2.46-4.1,52.56,52.56,0,0,0,2-5.08,37.43,37.43,0,0,0,1.39-5.25,26,26,0,0,0,.49-4.76,25,25,0,0,0-1.64-9A20.41,20.41,0,0,0,122.26,11a22.86,22.86,0,0,0-8-4.92,30.4,30.4,0,0,0-10.82-1.8A25.58,25.58,0,0,0,88.31,9.1,24.84,24.84,0,0,0,78.88,22Z"/></svg>