<svg id="icons" xmlns="http://www.w3.org/2000/svg" width="234.86" height="136.91" viewBox="0 0 234.86 136.91"><defs><style>.cls-1{fill:none;stroke:#222632;stroke-miterlimit:10;stroke-width:1.94px;}.cls-2{fill:#222632;}</style></defs><title>wants-2</title><line class="cls-1" x1="225.19" y1="127.23" x2="220.84" y2="127.23"/><line class="cls-1" x1="31.26" y1="127.23" x2="26.91" y2="127.23"/><line class="cls-1" x1="44.31" y1="127.23" x2="39.96" y2="127.23"/><line class="cls-1" x1="57.36" y1="127.23" x2="53.01" y2="127.23"/><line class="cls-1" x1="70.41" y1="127.23" x2="66.06" y2="127.23"/><line class="cls-1" x1="83.46" y1="127.23" x2="79.11" y2="127.23"/><line class="cls-1" x1="96.52" y1="127.23" x2="92.17" y2="127.23"/><line class="cls-1" x1="110.19" y1="127.23" x2="105.84" y2="127.23"/><line class="cls-1" x1="123.24" y1="127.23" x2="118.89" y2="127.23"/><line class="cls-1" x1="136.29" y1="127.23" x2="131.94" y2="127.23"/><line class="cls-1" x1="149.34" y1="127.23" x2="144.99" y2="127.23"/><line class="cls-1" x1="162.39" y1="127.23" x2="158.04" y2="127.23"/><line class="cls-1" x1="175.44" y1="127.23" x2="171.09" y2="127.23"/><line class="cls-1" x1="189.65" y1="127.23" x2="185.3" y2="127.23"/><line class="cls-1" x1="202.7" y1="127.23" x2="198.35" y2="127.23"/><line class="cls-1" x1="214.12" y1="127.23" x2="209.77" y2="127.23"/><path class="cls-1" d="M233.89,127.23a8.7,8.7,0,0,0-8.7-8.7H26.91a8.7,8.7,0,0,0-8.7,8.7h0a8.7,8.7,0,0,0,8.7,8.7H225.19a8.7,8.7,0,0,0,8.7-8.7Z"/><polyline class="cls-1" points="51.77 43.91 56.95 41.33 56.95 26.1 39.55 17.4 22.14 26.1 22.14 41.33 28.32 44.41"/><line class="cls-1" x1="39.55" x2="39.55" y2="17.4"/><path class="cls-2" d="M54,58.22a4,4,0,0,1-.68-2c-.06-.31-.13-.63-.2-.95-.39-1.62-.76-3.57-1-5-.11-.56-.2-1-.27-1.38l-1.4-6.82,0-.09a.28.28,0,0,0,0-.08c0-.21.1-.4.75-.41l.46.16a.29.29,0,0,0,.32-.09.25.25,0,0,0,0-.31c-.31-.5-.6-.58-.8-.58H28.6c-.68,0-1.09.36-1.32,1.19a.27.27,0,0,0,.07.26.29.29,0,0,0,.28.07L28.75,42h.09a.62.62,0,0,1,.54.18.67.67,0,0,1,.15.64l-2.34,8.92-1,3.93a5.07,5.07,0,0,1-.54,1.71,1,1,0,0,1-1.63,0,1.11,1.11,0,0,1-.24-.68,1,1,0,0,1,.5-.83.29.29,0,0,0,.17-.19l3.18-11.84a.29.29,0,0,0-.05-.25.27.27,0,0,0-.23-.11h-1a.81.81,0,0,1-.57-.25,1.12,1.12,0,0,0-.23-.18s0,.05,0,0c.11-1.88,1-4,3.14-4H51.26c2,0,2.95,2.74,3,2.86a1.19,1.19,0,0,1-.11.9,1.06,1.06,0,0,1-.6.47l-1-.42-.11,0a.29.29,0,0,0-.28.34c.39,1.9,1.34,6.46,2.83,13.56l.13.62a.93.93,0,0,1-.14.79A.72.72,0,0,1,54,58.22Z"/><path class="cls-2" d="M54.49,58.54h0a.78.78,0,0,0,.61-.28,1.06,1.06,0,0,0,.17-.9l-.13-.63C53.62,49.48,52.69,45,52.31,43.18a.15.15,0,0,1,.15-.18l.06,0,1,.42h.08a1.19,1.19,0,0,0,.69-.52,1.31,1.31,0,0,0,.13-1c0-.12-1-3-3.12-3H28.6c-2.21,0-3.14,2.17-3.27,4.05a.13.13,0,0,0,0,0h0v0h0c0,.14.1.15.14.15h0l.11.1a1,1,0,0,0,.67.3h1a.14.14,0,0,1,.12.06.15.15,0,0,1,0,.13L24.28,55.64a.15.15,0,0,1-.09.1,1.1,1.1,0,0,0-.58,1,1.25,1.25,0,0,0,.27.77,1.17,1.17,0,0,0,.92.44,1.14,1.14,0,0,0,.93-.46,3.3,3.3,0,0,0,.46-1.3c0-.16.06-.31.1-.46l3.37-12.84a.81.81,0,0,0-.17-.76.79.79,0,0,0-.71-.23h-.06l-1.12.28a.15.15,0,0,1-.14,0,.13.13,0,0,1,0-.13c.2-.76.56-1.09,1.18-1.09H51.23c.24,0,.47.17.68.52a.11.11,0,0,1,0,.15.15.15,0,0,1-.17,0l-.46-.16h0c-.68,0-.84.22-.88.53v0l0,.07a.14.14,0,0,0,0,.1L51.67,49c.07.34.16.82.27,1.38.27,1.43.64,3.38,1,5,.08.32.14.65.2.94a3.92,3.92,0,0,0,.73,2A1,1,0,0,0,54.49,58.54Zm-2-15.82a.42.42,0,0,0-.42.51c.38,1.87,1.31,6.31,2.83,13.56l.13.62a.8.8,0,0,1-.11.67.5.5,0,0,1-.39.18h0a.69.69,0,0,1-.42-.15,4.12,4.12,0,0,1-.63-1.87c-.06-.29-.13-.63-.2-1-.39-1.61-.76-3.56-1-5-.11-.56-.2-1-.27-1.39l-1.39-6.77,0-.06a.41.41,0,0,0,0-.11c0-.13,0-.27.59-.29l.44.15a.43.43,0,0,0,.48-.13.39.39,0,0,0,0-.47,1.12,1.12,0,0,0-.91-.65H28.6c-.75,0-1.21.41-1.45,1.29a.41.41,0,0,0,.11.4.43.43,0,0,0,.41.11l1.18-.28c.27,0,.37.05.43.13a.53.53,0,0,1,.12.52L26,55.62c0,.15-.07.31-.1.47a3.1,3.1,0,0,1-.41,1.19.86.86,0,0,1-.7.35.89.89,0,0,1-.71-.34,1,1,0,0,1-.21-.59A.83.83,0,0,1,24.3,56a.43.43,0,0,0,.25-.28l3.18-11.84a.43.43,0,0,0-.08-.37.41.41,0,0,0-.32-.17H26.26a.67.67,0,0,1-.47-.21,1.24,1.24,0,0,0-.18-.15c.14-1.83,1-3.75,3-3.75H51.26c1.91,0,2.85,2.74,2.86,2.76a1.06,1.06,0,0,1-.09.77,1,1,0,0,1-.48.4l-.93-.4A.43.43,0,0,0,52.46,42.72Z"/><path class="cls-2" d="M3.11,69.22c-.07-1-.57-9.4,2.12-11.47,1.65-1.28,3.19-1.88,7.93-2l1.25,0c1.49,0,3.19-.07,5-.06a.81.81,0,0,1,.57.23.73.73,0,0,1,.23.54.78.78,0,0,1-.81.76H18.14c-1.77,0-3.47,0-5,0-4.58.08-5.74,1-6.76,1.81l-.21.16c-1.43,1.1-1.65,6.48-1.55,9.41,0,.16.13.4.29.4H24.41c.29,0,.6-.12.94-.13s.76-.07,1.16-.07a18,18,0,0,1,2.1.07.71.71,0,0,1,.59.73c0,.34-.37.77-1.29.77h-24C3.55,70.42,3.15,69.7,3.11,69.22Z"/><path class="cls-2" d="M3.92,70.56h24c.94,0,1.39-.45,1.42-.9a.85.85,0,0,0-.71-.88,18.36,18.36,0,0,0-2.11-.07c-.22,0-.43,0-.64,0l-.52,0a2.84,2.84,0,0,0-.52.07,2.2,2.2,0,0,1-.41.06H5s-.15-.15-.15-.27c-.09-2.74.1-8.22,1.49-9.29l.21-.17c1-.8,2.16-1.7,6.68-1.78,1.63,0,3.35,0,5,0h1.26a.92.92,0,0,0,.95-.9.87.87,0,0,0-.27-.64,1,1,0,0,0-.67-.27c-1.65,0-3.22,0-4.59,0H14.4l-.62,0-.63,0c-4.75.08-6.31.68-8,2C2.4,59.76,2.91,68.27,3,69.23,3,69.75,3.45,70.56,3.92,70.56ZM26.51,69a18.2,18.2,0,0,1,2.08.07.58.58,0,0,1,.47.59c0,.24-.27.64-1.15.64h-24c-.25,0-.63-.61-.67-1.07-.07-.95-.57-9.32,2.06-11.36C7,56.58,8.49,56,13.16,55.92l.63,0,.62,0h.42c1.37,0,2.94-.06,4.59,0a.68.68,0,0,1,.48.19.6.6,0,0,1,.19.44.64.64,0,0,1-.67.63H18.14c-1.61,0-3.33,0-5,0-4.62.08-5.8,1-6.84,1.83l-.21.17c-1.48,1.14-1.7,6.52-1.6,9.52,0,.22.18.53.43.53H24.41a2.41,2.41,0,0,0,.47-.06,2.62,2.62,0,0,1,.47-.07l.54,0C26.1,69,26.31,69,26.51,69Z"/><path class="cls-2" d="M48.2,71.44A6.54,6.54,0,1,1,41.66,78,6.55,6.55,0,0,1,48.2,71.44Zm0,11.47A4.93,4.93,0,1,0,43.27,78,4.94,4.94,0,0,0,48.2,82.91Z"/><path class="cls-2" d="M48.2,84.66A6.68,6.68,0,1,0,41.52,78,6.69,6.69,0,0,0,48.2,84.66Zm0-13.08A6.4,6.4,0,1,1,41.8,78,6.41,6.41,0,0,1,48.2,71.58ZM48.2,83A5.07,5.07,0,1,0,43.13,78,5.07,5.07,0,0,0,48.2,83Zm0-9.86A4.79,4.79,0,1,1,43.41,78,4.8,4.8,0,0,1,48.2,73.19Z"/><path class="cls-2" d="M48.2,64.79A13.19,13.19,0,1,1,35,78,13.21,13.21,0,0,1,48.2,64.79Zm0,24.78A11.58,11.58,0,1,0,36.62,78,11.6,11.6,0,0,0,48.2,89.57Z"/><path class="cls-2" d="M48.2,91.31A13.33,13.33,0,1,0,34.87,78,13.35,13.35,0,0,0,48.2,91.31Zm0-26.39A13.06,13.06,0,1,1,35.14,78,13.07,13.07,0,0,1,48.2,64.93Zm0,24.78A11.72,11.72,0,1,0,36.48,78,11.73,11.73,0,0,0,48.2,89.7Zm0-23.17A11.45,11.45,0,1,1,36.75,78,11.46,11.46,0,0,1,48.2,66.54Z"/><path class="cls-2" d="M15.92,81.33a5.3,5.3,0,1,1-5.3-5.3A5.31,5.31,0,0,1,15.92,81.33Zm-9,0a3.69,3.69,0,1,0,3.69-3.69A3.69,3.69,0,0,0,6.93,81.33Z"/><path class="cls-2" d="M10.62,86.77a5.44,5.44,0,1,0-5.44-5.44A5.44,5.44,0,0,0,10.62,86.77Zm0-10.6a5.16,5.16,0,1,1-5.16,5.16A5.17,5.17,0,0,1,10.62,76.17Zm0,9a3.83,3.83,0,1,0-3.83-3.83A3.83,3.83,0,0,0,10.62,85.16Zm0-7.38a3.55,3.55,0,1,1-3.55,3.55A3.56,3.56,0,0,1,10.62,77.78Z"/><path class="cls-2" d="M21.1,81.33A10.48,10.48,0,1,1,10.62,70.85,10.49,10.49,0,0,1,21.1,81.33Zm-19.35,0a8.87,8.87,0,1,0,8.87-8.87A8.88,8.88,0,0,0,1.75,81.33Z"/><path class="cls-2" d="M10.62,92A10.62,10.62,0,1,0,0,81.33,10.63,10.63,0,0,0,10.62,92Zm0-21A10.34,10.34,0,1,1,.27,81.33,10.36,10.36,0,0,1,10.62,71Zm0,19.35a9,9,0,1,0-9-9A9,9,0,0,0,10.62,90.34Zm0-17.74a8.73,8.73,0,1,1-8.73,8.73A8.74,8.74,0,0,1,10.62,72.6Z"/><path class="cls-2" d="M29.26,55.37c3.63-11.71,4.2-12,4.62-12.2A5.71,5.71,0,0,1,36.16,43h4l2.12,0,1.87,0c1.52,0,1.88.1,2.16.33s1,.78.29,10.48a.81.81,0,0,1-.5.69L35.85,58.65l-.13,0a12.16,12.16,0,0,1-2.41.27,5,5,0,0,1-1.92-.32c-1.39-.58-2.73-1.4-2.2-3.09Zm1.48,1a3,3,0,0,0,1.29.78,3.48,3.48,0,0,0,1.3.19,10.53,10.53,0,0,0,2-.22l.05,0,9.57-3.91a.29.29,0,0,0,.18-.25,74.88,74.88,0,0,0,.18-8.13.29.29,0,0,0-.28-.26c-.47,0-1.52,0-2.64,0l-2.14,0h-4c-.59,0-1,0-1.32,0a.29.29,0,0,0-.24.16,115.89,115.89,0,0,0-3.81,11.08l-.06.19a1.08,1.08,0,0,0,0,.11A.29.29,0,0,0,30.73,56.38Z"/><path class="cls-2" d="M33.32,59.1a12.33,12.33,0,0,0,2.44-.28l.15,0,10.29-4.21a1,1,0,0,0,.58-.81c.67-9.77.06-10.27-.34-10.6s-.69-.36-2.25-.36l-1.87,0-2.12,0h-4a5.73,5.73,0,0,0-2.35.21c-.46.23-1,.52-4.69,12.28l-.06.19c-.56,1.81.92,2.69,2.28,3.25A5.17,5.17,0,0,0,33.32,59.1Zm10.87-16c1.46,0,1.82.09,2.07.3s.9.74.24,10.37a.67.67,0,0,1-.41.57L35.8,58.52l-.11,0a12,12,0,0,1-2.38.27,4.91,4.91,0,0,1-1.86-.31c-1.4-.58-2.62-1.34-2.13-2.92l.06-.19C33,43.76,33.56,43.48,33.94,43.29a5.79,5.79,0,0,1,2.23-.18h4l2.12,0ZM33.32,57.49a10.67,10.67,0,0,0,2-.22l.07,0L45,53.33a.43.43,0,0,0,.26-.37,75,75,0,0,0,.18-8.16.43.43,0,0,0-.41-.39c-.47,0-1.52,0-2.64,0l-2.14,0H37.67c-1.32,0-2.33,0-2.84,0a.43.43,0,0,0-.36.24,115.9,115.9,0,0,0-3.81,11.1L30.6,56a1.15,1.15,0,0,0,0,.13.42.42,0,0,0,0,.32,3,3,0,0,0,1.35.84A3.61,3.61,0,0,0,33.32,57.49Zm10.91-12.8H45a.15.15,0,0,1,.15.14,74.75,74.75,0,0,1-.18,8.11.15.15,0,0,1-.09.13L35.28,57h0a10.38,10.38,0,0,1-1.94.21A3.35,3.35,0,0,1,32.07,57c-.92-.38-1.16-.62-1.22-.72a.15.15,0,0,1,0-.12s0-.07,0-.11l.06-.19a115.92,115.92,0,0,1,3.8-11.05.15.15,0,0,1,.13-.08c.28,0,.72,0,1.31,0h4l2.14,0Z"/><path class="cls-2" d="M19.81,72.26c0-.47.14-.75.83-.76.06.05.17.17.25.25a1.88,1.88,0,0,0,.48.42c.11.05.29.14,3.29.14H28.1c.74,0,.81.09.81.35,0,.1,0,.1-.09.19l-.11.12a.29.29,0,0,0-.06.11,4.79,4.79,0,0,0,.47,4.37,3.55,3.55,0,0,0,3.34,1A.78.78,0,1,1,32.63,80a7.94,7.94,0,0,1-.82,0,4.81,4.81,0,0,1-3.93-1.7,4.28,4.28,0,0,1-1-4.11.29.29,0,0,0-.28-.34l-3.51-.09a.29.29,0,0,0-.25.45,14.76,14.76,0,0,1,2.06,7.91.39.39,0,0,0,.08.25.34.34,0,0,0,.21.12h7.73a.82.82,0,0,1,0,1.65H24.17c-.31,0-.7-.72-.79-1.19a.8.8,0,0,0,0-.16,2.14,2.14,0,0,1-.08-1.05v0c.16-.83-.1-6.69-3.11-8.76A.83.83,0,0,1,19.81,72.26Z"/><path class="cls-2" d="M24.17,84.3h8.76a1,1,0,0,0,0-1.92H25.2s0,0-.11-.08a.27.27,0,0,1,0-.15,14.9,14.9,0,0,0-2.08-8,.15.15,0,0,1,.13-.24L26.6,74a.15.15,0,0,1,.15.18,4.4,4.4,0,0,0,1,4.22,4.94,4.94,0,0,0,4,1.75,8.09,8.09,0,0,0,.83,0,.92.92,0,1,0-.19-1.83,3.44,3.44,0,0,1-3.22-1,4.66,4.66,0,0,1-.44-4.25l0-.06.1-.11a.31.31,0,0,0,.13-.28c0-.41-.25-.48-1-.48H24.66c-3,0-3.15-.08-3.23-.12a1.83,1.83,0,0,1-.44-.39,3.63,3.63,0,0,0-.27-.27.16.16,0,0,0-.09,0c-.84,0-1,.44-1,.9a1,1,0,0,0,.41.8c3,2,3.21,7.8,3.05,8.62v0a2.25,2.25,0,0,0,.1,1.16V83C23.33,83.44,23.73,84.3,24.17,84.3Zm8.76-1.65a.69.69,0,0,1,.67.69.7.7,0,0,1-.67.69H24.17c-.19,0-.57-.61-.65-1.07a.62.62,0,0,0-.05-.21,2.11,2.11,0,0,1-.07-.94v0c.16-.86-.11-6.8-3.17-8.91a.69.69,0,0,1-.29-.58c0-.41.09-.6.64-.63l.2.21a2,2,0,0,0,.52.45c.13.06.32.15,3.35.15H28.1c.67,0,.68.06.68.21a.28.28,0,0,1,0,0h0l0,0-.12.12a.43.43,0,0,0-.09.16A4.92,4.92,0,0,0,29,77.5a3.7,3.7,0,0,0,3.46,1.06.66.66,0,0,1,.73.57.65.65,0,0,1-.6.72,7.84,7.84,0,0,1-.8,0A4.67,4.67,0,0,1,28,78.24a4.17,4.17,0,0,1-1-4,.43.43,0,0,0-.41-.5l-3.51-.09h0a.43.43,0,0,0-.39.22.42.42,0,0,0,0,.44,14.62,14.62,0,0,1,2,7.83.52.52,0,0,0,.12.34.46.46,0,0,0,.3.17Z"/><path class="cls-2" d="M60,69.18a.81.81,0,0,1,.29-1.1,2.46,2.46,0,0,0,.74-.71A.29.29,0,0,0,61,67a15.86,15.86,0,0,0-18.1-5.27c-6.07,2.17-10.3,7.48-10.3,12.91a.8.8,0,0,1-1.61,0c0-6.1,4.68-12,11.37-14.43a17.44,17.44,0,0,1,20,6,.8.8,0,0,1,.18.43.29.29,0,0,0,.06.15.8.8,0,0,1,.11.78,4,4,0,0,1-1.66,1.94A.83.83,0,0,1,60,69.18Z"/><path class="cls-2" d="M31.79,75.6a.94.94,0,0,0,.94-.94c0-5.37,4.2-10.63,10.21-12.78a16.13,16.13,0,0,1,5.44-1,16.3,16.3,0,0,1,12.5,6.2.15.15,0,0,1,0,.19,2.32,2.32,0,0,1-.69.67.94.94,0,0,0-.34,1.29,1,1,0,0,0,.83.46h0a.92.92,0,0,0,.46-.12,4.19,4.19,0,0,0,1.72-2,.94.94,0,0,0-.13-.91.16.16,0,0,1,0-.08.94.94,0,0,0-.21-.5,17.58,17.58,0,0,0-20.19-6c-6.75,2.41-11.46,8.4-11.46,14.55A.94.94,0,0,0,31.79,75.6Zm16.6-15a16.41,16.41,0,0,0-5.53,1c-6.12,2.19-10.39,7.55-10.39,13a.67.67,0,0,1-1.33,0c0-6,4.64-11.92,11.28-14.3a17.3,17.3,0,0,1,19.89,5.91.66.66,0,0,1,.15.35.43.43,0,0,0,.08.21.66.66,0,0,1,.09.65A3.9,3.9,0,0,1,61,69.35a.64.64,0,0,1-.32.08.69.69,0,0,1-.59-.33.67.67,0,0,1,.24-.91,2.6,2.6,0,0,0,.78-.75.43.43,0,0,0,0-.52A16.57,16.57,0,0,0,48.39,60.63Z"/><path class="cls-2" d="M83.83,115a10.23,10.23,0,0,0,10-10.39,10.65,10.65,0,0,0-.7-3.81,10.42,10.42,0,0,0-2.08-3.37,10.09,10.09,0,0,0-2.61-2,9.8,9.8,0,0,0-4.65-1.18,10.39,10.39,0,0,0,0,20.78Zm0-18.8a7.84,7.84,0,0,1,3.77,1,8.19,8.19,0,0,1,2.12,1.65,8.41,8.41,0,0,1,1.69,2.73,8.6,8.6,0,0,1,.57,3.09,8.15,8.15,0,1,1-8.14-8.42Z"/><path class="cls-2" d="M82.68,116.62a1,1,0,0,0,.95-.88,1,1,0,0,0-.85-1.09l-.35,0a1,1,0,0,0-1.08.84,1,1,0,0,0,.81,1.12l.41.05Zm2.65,0h.13l.41-.07a1,1,0,0,0,.77-1.14,1,1,0,0,0-1.11-.8l-.34.06a1,1,0,0,0-.81,1.11A1,1,0,0,0,85.33,116.57Zm-5.59-.73a1,1,0,0,0,.88-.61,1,1,0,0,0-.52-1.29l-.32-.14a.94.94,0,0,0-1.27.49,1,1,0,0,0,.47,1.31l.38.17A.91.91,0,0,0,79.74,115.84Zm8.5-.15a.92.92,0,0,0,.39-.09l.37-.18a1,1,0,0,0,.43-1.32.94.94,0,0,0-1.28-.44l-.31.16a1,1,0,0,0-.47,1.31A1,1,0,0,0,88.24,115.69Zm-11.1-1.45a.94.94,0,0,0,.74-.37,1,1,0,0,0-.14-1.39l-.27-.23a.93.93,0,0,0-1.35.1,1,1,0,0,0,.1,1.39l.32.27A.93.93,0,0,0,77.14,114.24ZM90.79,114a.93.93,0,0,0,.62-.24l.31-.29a1,1,0,0,0,0-1.39.93.93,0,0,0-1.35-.05l-.26.24a1,1,0,0,0-.1,1.39A.94.94,0,0,0,90.79,114Zm-15.72-2.06a.92.92,0,0,0,.54-.18,1,1,0,0,0,.24-1.37l-.19-.3a.93.93,0,0,0-1.32-.29,1,1,0,0,0-.29,1.36l.23.35A.94.94,0,0,0,75.07,111.94Zm17.7-.31a.94.94,0,0,0,.8-.45l.22-.36a1,1,0,0,0-.33-1.35.94.94,0,0,0-1.31.34l-.18.31a1,1,0,0,0,.29,1.36A.93.93,0,0,0,92.78,111.64Zm-19.06-2.49a.93.93,0,0,0,.3-.05,1,1,0,0,0,.6-1.25l-.1-.34a1,1,0,0,0-1.18-.67,1,1,0,0,0-.65,1.22c0,.14.08.27.12.41A1,1,0,0,0,73.71,109.14ZM94,108.79a1,1,0,0,0,.91-.71c0-.14.08-.27.11-.41a1,1,0,0,0-.69-1.2,1,1,0,0,0-1.16.71l-.09.34a1,1,0,0,0,.65,1.22A.91.91,0,0,0,94,108.79Zm-20.87-2.73h0a1,1,0,0,0,.92-1q0-.18,0-.36v0a1,1,0,1,0-1.91,0v0q0,.22,0,.43A1,1,0,0,0,73.18,106.06Zm21.3-.38a1,1,0,0,0,1-1v0c0-.13,0-.27,0-.4a1,1,0,0,0-1-1,1,1,0,0,0-.92,1c0,.11,0,.22,0,.34A1,1,0,0,0,94.48,105.68Zm-21-2.77a1,1,0,0,0,.92-.74c0-.12.06-.23.09-.35a1,1,0,0,0-.64-1.23,1,1,0,0,0-1.19.66c0,.14-.08.27-.11.41a1,1,0,0,0,.68,1.2A.91.91,0,0,0,73.51,102.9Zm20.54-.32a.88.88,0,0,0,.27,0,1,1,0,0,0,.65-1.22l-.12-.41a1,1,0,0,0-1.21-.63,1,1,0,0,0-.61,1.25l.1.34A1,1,0,0,0,94.06,102.59ZM74.68,100a1,1,0,0,0,.82-.48l.18-.3a1,1,0,0,0-.28-1.36.94.94,0,0,0-1.32.29l-.22.36a1,1,0,0,0,.33,1.35A.92.92,0,0,0,74.68,100Zm18.12-.28a.93.93,0,0,0,.51-.16,1,1,0,0,0,.29-1.36l-.23-.36A.93.93,0,0,0,92,97.61,1,1,0,0,0,91.81,99l.19.3A1,1,0,0,0,92.8,99.73ZM76.59,97.58a.93.93,0,0,0,.65-.26l.26-.24a1,1,0,0,0,.1-1.39.93.93,0,0,0-1.35-.1l-.31.28a1,1,0,0,0-.05,1.39A.94.94,0,0,0,76.59,97.58Zm14.23-.22a.94.94,0,0,0,.72-.34,1,1,0,0,0-.09-1.39l-.32-.28a.93.93,0,0,0-1.34.15,1,1,0,0,0,.14,1.39l.27.23A.93.93,0,0,0,90.82,97.36ZM79.09,95.8a.93.93,0,0,0,.42-.1l.31-.15a1,1,0,0,0,.47-1.31A.94.94,0,0,0,79,93.75l-.37.18a1,1,0,0,0-.43,1.32A1,1,0,0,0,79.09,95.8Zm9.19-.14a1,1,0,0,0,.87-.57,1,1,0,0,0-.47-1.31l-.38-.17a.94.94,0,0,0-1.25.53,1,1,0,0,0,.51,1.29l.32.14A.92.92,0,0,0,88.28,95.66ZM82,94.82h.17l.34-.06a1,1,0,0,0,.81-1.11,1,1,0,0,0-1.08-.84l-.41.07A1,1,0,0,0,81,94,1,1,0,0,0,82,94.82Zm3.41-.05a1,1,0,0,0,.94-.84,1,1,0,0,0-.81-1.12l-.41-.05a1,1,0,0,0-1.05.87,1,1,0,0,0,.85,1.09l.34,0Z"/><path class="cls-2" d="M131,116.62a1,1,0,0,0,.95-.88,1,1,0,0,0-.85-1.09l-.34,0a1,1,0,0,0-1.08.84,1,1,0,0,0,.81,1.12l.41.05Zm2.65,0h.13l.41-.07a1,1,0,0,0,.77-1.14,1,1,0,0,0-1.11-.8l-.34.06a1,1,0,0,0-.81,1.11A1,1,0,0,0,133.61,116.57Zm-5.59-.73a1,1,0,0,0,.88-.61,1,1,0,0,0-.52-1.29l-.32-.14a.94.94,0,0,0-1.26.49,1,1,0,0,0,.47,1.31l.38.17A.91.91,0,0,0,128,115.84Zm8.5-.15a.92.92,0,0,0,.4-.09l.37-.18a1,1,0,0,0,.43-1.32.94.94,0,0,0-1.28-.44l-.31.16a1,1,0,0,0-.47,1.31A1,1,0,0,0,136.52,115.69Zm-11.1-1.45a.94.94,0,0,0,.74-.37,1,1,0,0,0-.14-1.39l-.27-.23a.93.93,0,0,0-1.35.1,1,1,0,0,0,.1,1.39l.32.27A.93.93,0,0,0,125.42,114.24Zm13.65-.24a.93.93,0,0,0,.62-.24l.31-.29a1,1,0,0,0,0-1.39.93.93,0,0,0-1.35-.05l-.26.24a1,1,0,0,0-.1,1.39A.94.94,0,0,0,139.07,114Zm-15.72-2.06a.92.92,0,0,0,.54-.18,1,1,0,0,0,.24-1.37l-.19-.3a.94.94,0,0,0-1.32-.29,1,1,0,0,0-.29,1.36l.23.35A.94.94,0,0,0,123.36,111.94Zm17.7-.31a.94.94,0,0,0,.8-.45l.22-.36a1,1,0,0,0-.33-1.35.94.94,0,0,0-1.31.34l-.18.31a1,1,0,0,0,.28,1.36A.93.93,0,0,0,141.06,111.64ZM122,109.14a.91.91,0,0,0,.3-.05,1,1,0,0,0,.61-1.25l-.1-.34a1,1,0,0,0-1.18-.67,1,1,0,0,0-.65,1.22l.12.41A1,1,0,0,0,122,109.14Zm20.33-.35a1,1,0,0,0,.91-.71l.11-.41a1,1,0,0,0-.69-1.2,1,1,0,0,0-1.16.71c0,.12-.06.23-.09.34a1,1,0,0,0,.65,1.22A.93.93,0,0,0,142.33,108.79Zm-20.87-2.73h0a1,1,0,0,0,.92-1c0-.12,0-.24,0-.36v0a1,1,0,1,0-1.91,0v0q0,.22,0,.43A1,1,0,0,0,121.46,106.06Zm21.3-.38a1,1,0,0,0,1-1v0c0-.13,0-.27,0-.4a1,1,0,0,0-1-1,1,1,0,0,0-.92,1c0,.11,0,.22,0,.34A1,1,0,0,0,142.76,105.68Zm-21-2.77a1,1,0,0,0,.92-.74c0-.12.06-.23.09-.35a1,1,0,0,0-.64-1.23,1,1,0,0,0-1.19.66l-.11.41a1,1,0,0,0,.69,1.2A.93.93,0,0,0,121.79,102.9Zm20.54-.32a.91.91,0,0,0,.27,0,1,1,0,0,0,.65-1.22l-.12-.41a1,1,0,0,0-1.21-.63,1,1,0,0,0-.61,1.25l.1.34A1,1,0,0,0,142.34,102.59ZM123,100a1,1,0,0,0,.82-.48l.18-.3a1,1,0,0,0-.28-1.36.94.94,0,0,0-1.32.29l-.22.36a1,1,0,0,0,.33,1.35A.92.92,0,0,0,123,100Zm18.12-.28a.92.92,0,0,0,.51-.16,1,1,0,0,0,.29-1.36l-.23-.36a.93.93,0,0,0-1.33-.25,1,1,0,0,0-.24,1.37l.19.3A1,1,0,0,0,141.09,99.73Zm-16.21-2.15a.93.93,0,0,0,.65-.26l.26-.24a1,1,0,0,0,.1-1.39.93.93,0,0,0-1.35-.1l-.31.28a1,1,0,0,0-.05,1.39A.94.94,0,0,0,124.87,97.58Zm14.23-.22a.94.94,0,0,0,.72-.34,1,1,0,0,0-.09-1.39l-.32-.28a.93.93,0,0,0-1.34.15,1,1,0,0,0,.14,1.39l.27.23A.93.93,0,0,0,139.1,97.36ZM127.37,95.8a.93.93,0,0,0,.42-.1l.31-.15a1,1,0,0,0,.48-1.31.94.94,0,0,0-1.26-.49l-.37.18a1,1,0,0,0-.43,1.32A1,1,0,0,0,127.37,95.8Zm9.19-.14a1,1,0,0,0,.87-.57,1,1,0,0,0-.47-1.31l-.38-.17a.94.94,0,0,0-1.25.53,1,1,0,0,0,.51,1.29l.32.14A.92.92,0,0,0,136.56,95.66Zm-6.31-.84h.17l.34-.06a1,1,0,0,0,.81-1.11,1,1,0,0,0-1.08-.84l-.41.07a1,1,0,0,0-.77,1.14A1,1,0,0,0,130.25,94.82Zm3.41-.05a1,1,0,0,0,.94-.84,1,1,0,0,0-.81-1.12l-.41-.05a1,1,0,0,0-1.05.87,1,1,0,0,0,.85,1.09l.34,0Z"/><path class="cls-2" d="M132.23,115.1a10.33,10.33,0,1,0-10-10.32A10.17,10.17,0,0,0,132.23,115.1Zm0-18.67a8.35,8.35,0,1,1-8.08,8.35A8.23,8.23,0,0,1,132.23,96.43Z"/><path class="cls-2" d="M103.19,93.5a.92.92,0,0,0,.26,0l49.7-14.7a1,1,0,0,0,.69-.95V72.3a1,1,0,0,0-1-1l-43.8-.1-6.88-6.55a.94.94,0,0,0-.65-.26H89.93a1,1,0,0,0-1,1v4.34a1,1,0,0,0,1,1h7.26l5.07,22a1,1,0,0,0,.45.62A.94.94,0,0,0,103.19,93.5Zm48.75-16.43L103.89,91.28l-5-21.78a1,1,0,0,0-.93-.76H90.88V66.38H101.2l6.88,6.54a.93.93,0,0,0,.64.26l43.22.1Z"/><path class="cls-2" d="M68.5,101.88h2.16a1,1,0,0,0,0-2H68.78a7.06,7.06,0,0,1-.84-2.3l.67-.29a1,1,0,0,0,.59-.84s0-.34.06-1a1,1,0,0,0-.89-1,1,1,0,0,0-1,.92l0,.35-.85.37a1,1,0,0,0-.58,1.08c.25,1.52.88,4.14,2.28,4.65A1,1,0,0,0,68.5,101.88Z"/><path class="cls-2" d="M97.37,98.93h0a1,1,0,0,0,.95-1c-.1-23.72-.49-24.42-.64-24.68a8,8,0,0,0-1.62-1.85.94.94,0,0,0-.58-.22l-13-.26a.9.9,0,0,0-.44.1L79.77,72.2a.94.94,0,0,0-.32.27L70.2,84.63l-1.67.69a1,1,0,0,0-.6.84s-.27,3.52-.46,6.48a1,1,0,0,0,.89,1,1,1,0,0,0,1-.92c.14-2.21.32-4.71.41-5.84l1.36-.56a.94.94,0,0,0,.4-.31l9.28-12.19,1.89-1,12.39.25a6,6,0,0,1,.87,1c.26,1.65.41,15.37.44,23.81A1,1,0,0,0,97.37,98.93Z"/><path class="cls-2" d="M97.37,99.12a.91.91,0,0,0,.26,0l50.88-14.76-8.34,9.47a1,1,0,0,0,.06,1.39.93.93,0,0,0,1.35-.07l10.58-12a1,1,0,0,0,.11-1.18.94.94,0,0,0-1.07-.43L97.11,97.19a1,1,0,0,0-.66,1.22A1,1,0,0,0,97.37,99.12Z"/><path class="cls-2" d="M97,101.88h22.13a1,1,0,0,0,0-2H97a1,1,0,0,0,0,2Z"/><path class="cls-2" d="M93.55,84.41a.94.94,0,0,0,.67-.28,1,1,0,0,0,.29-.71V75.26a1,1,0,0,0-.28-.7.94.94,0,0,0-.67-.29H83.06a1,1,0,0,0-.78.42l-5.21,7.77a1,1,0,0,0-.07,1,1,1,0,0,0,.83.54l15.7.39Zm-1-8.16v6.17l-13-.32,3.92-5.85Z"/><path class="cls-2" d="M132.19,109.77a5,5,0,1,0-4.87-5A5,5,0,0,0,132.19,109.77Zm0-8.09a3.06,3.06,0,1,1-3,3.06A3,3,0,0,1,132.19,101.69Z"/><path class="cls-2" d="M83.73,109.77a5,5,0,1,0-4.87-5A5,5,0,0,0,83.73,109.77Zm0-8.09a3.06,3.06,0,1,1-3,3.06A3,3,0,0,1,83.73,101.69Z"/><path class="cls-2" d="M110.16,86.14a1,1,0,0,0,1-1V77.26a1,1,0,1,0-1.91,0v7.89A1,1,0,0,0,110.16,86.14Z"/><path class="cls-2" d="M120.46,84.17a1,1,0,0,0,1-1V77.26a1,1,0,1,0-1.91,0v5.92A1,1,0,0,0,120.46,84.17Z"/><path class="cls-2" d="M130.76,81.41a1,1,0,0,0,1-1V76.47a1,1,0,1,0-1.91,0v3.94A1,1,0,0,0,130.76,81.41Z"/><path class="cls-2" d="M162.3,110.19c3.94-3.38,5.09-11.38,4.5-17.39-.49-4.93-2.07-8.68-4.13-9.79a1.12,1.12,0,0,1-.45-1.44,1,1,0,0,1,1.34-.48c2.33,1.25,4.11,4.62,4.91,9.2a1,1,0,0,1,.66-.27l2.6,0a1,1,0,0,1,1,1.08v.77a5.35,5.35,0,0,1,3.44,4l2.94-.69.31-11.32a1.05,1.05,0,0,1,.84-1l2.21-.38c.55-.82,1.93-2.15,5.19-2.27.41,0,2.63,0,5.76,0a1.16,1.16,0,0,1,0-.29l.06-9.47a1,1,0,1,1,2,0L195.36,80a1.14,1.14,0,0,1,0,.29l8.59.08,1.48-8H205a1,1,0,0,1-.79-.44,1.1,1.1,0,0,1-.4-.87l0-4.73a1.09,1.09,0,0,1,.41-.85A1,1,0,0,1,205,65l20.37.19a1,1,0,0,1,.79.44,1.1,1.1,0,0,1,.4.86l0,5.16a1.16,1.16,0,0,1-.07.39l1.59,10.1a1.22,1.22,0,0,1,0,.19L228,96.62a1,1,0,1,1-2,0l.09-14.2L224.5,72.27a1.14,1.14,0,0,1,.07-.6s0,0,0,0l0-4.3-18.77-.17,0,3,17.17.16a1,1,0,0,1,1,1.08,1.11,1.11,0,0,1-.26.71,1.14,1.14,0,0,1,.06.36l-.06,9.15a1.12,1.12,0,0,1-.3.76.9.9,0,0,1-.71.31c-.33,0-33.35-.38-35-.33-3.06.11-3.69,1.46-3.69,1.46a.91.91,0,0,1-.78.7l-1.86.32-.32,11.65a1.13,1.13,0,0,1-1,1.13h0c-.16,0-.31-.15-.44-.22l-3.39.7a5.3,5.3,0,0,1-3.56,4.23v.86a1,1,0,0,1-1,1.06l-3,0a1,1,0,0,1-.67-.29,15.56,15.56,0,0,1-4.42,7.95,1,1,0,0,1-.63.23,1,1,0,0,1-.77-.41A1.14,1.14,0,0,1,162.3,110.19Zm43.64-29.84,9,.1L215,72.4l-7.57-.07Zm15.83-7.89-4.79,0-.05,8.06,4.79.05ZM174.28,97.12a3.36,3.36,0,0,0-1.59-2.91l0,5.78A3.33,3.33,0,0,0,174.28,97.12Zm-5.64,4.95,2,0,.06-9.9-1.6,0a.94.94,0,0,1-.39-.09c0,.16,0,.33.06.49a34.18,34.18,0,0,1-.41,9.53A.93.93,0,0,1,168.65,102.07Z"/><path class="cls-2" d="M178.95,109a1,1,0,0,1,1.34.49,7.43,7.43,0,0,0,1.06,1.69,1.14,1.14,0,0,1-.07,1.52.95.95,0,0,1-1.41-.08,9.58,9.58,0,0,1-1.38-2.18A1.12,1.12,0,0,1,178.95,109Z"/><path class="cls-2" d="M179,103.42a1.08,1.08,0,0,1,.74,1.29,7.71,7.71,0,0,0-.18,1.62c0,.21,0,.42,0,.63a1.05,1.05,0,0,1-.92,1.16h-.09a1,1,0,0,1-1-1c0-.27,0-.55,0-.85a10,10,0,0,1,.23-2.07A1,1,0,0,1,179,103.42Z"/><path class="cls-2" d="M180.71,102.41a1,1,0,0,1-.84.48.94.94,0,0,1-.54-.18,1.13,1.13,0,0,1-.28-1.49,9.41,9.41,0,0,1,1.53-1.89,1,1,0,0,1,1.41.1,1.13,1.13,0,0,1-.09,1.52A7.25,7.25,0,0,0,180.71,102.41Z"/><path class="cls-2" d="M183.48,113a6.74,6.74,0,0,0,3,.85l35.21.33c3.77,0,7-3.36,7-7.44a7,7,0,0,0-6.91-7.19l-35.21-.33a6.68,6.68,0,0,0-2.48.41,1,1,0,0,1-1.28-.65,1.1,1.1,0,0,1,.6-1.38,8.5,8.5,0,0,1,3.17-.53l35.21.33a9.06,9.06,0,0,1,8.9,9.39c0,5.31-4.08,9.6-9,9.55L186.5,116a8.59,8.59,0,0,1-3.89-1.07,1.11,1.11,0,0,1-.46-1.44A1,1,0,0,1,183.48,113Z"/><path class="cls-2" d="M186.46,100.62h.32a5,5,0,0,1,1,0l32.53.39h0l.11,0a5,5,0,0,1,.79-.06,5.69,5.69,0,0,1-.07,11.34,5.25,5.25,0,0,1-4.77-3.38l-25.17-.3a5.21,5.21,0,0,1-4.84,3.35,5.69,5.69,0,0,1,.07-11.34Zm-.06,9.19a3.3,3.3,0,0,0,3.12-2.44,1.06,1.06,0,0,1,1-1h0c9.51-.1,24.43.32,26,.34a1,1,0,0,1,.35-.15,1,1,0,0,1,1.2.82,3.33,3.33,0,0,0,3.16,2.74,3.53,3.53,0,0,0,0-7,3.19,3.19,0,0,0-.49,0c-.06,0-.11-.08-.17-.08s-.17,0-.27,0h0l-33.85-.24h0a3.53,3.53,0,0,0,0,7Z"/><path class="cls-2" d="M221.79,105.49a1.14,1.14,0,0,1,0,1.52,1,1,0,0,1-1.41,0,1.14,1.14,0,0,1,0-1.52A1,1,0,0,1,221.79,105.49Z"/><path class="cls-2" d="M185.32,105.46a1,1,0,0,1,1-.61,1.06,1.06,0,0,1,1,1.08v0a1.08,1.08,0,0,1-1,1.08h-.07a1.09,1.09,0,0,1-1-1.08v0A1.1,1.1,0,0,1,185.32,105.46Z"/></svg>