<svg id="icons" xmlns="http://www.w3.org/2000/svg" width="229.89" height="132.03" viewBox="0 0 229.89 132.03"><defs><style>.cls-1{fill:#222632;}.cls-2{fill:none;stroke:#222632;stroke-miterlimit:10;stroke-width:1.89px;}.cls-3{opacity:0.3;}</style></defs><title>wants-3</title><path class="cls-1" d="M136.84,26.17a3.9,3.9,0,0,1-.66-1.9c-.06-.3-.12-.61-.2-.92-.38-1.57-.74-3.47-1-4.86-.1-.55-.19-1-.26-1.35l-1.36-6.63,0-.09a.28.28,0,0,0,0-.08c0-.2.1-.39.73-.4l.45.16a.28.28,0,0,0,.31-.09.24.24,0,0,0,0-.3c-.3-.49-.59-.56-.77-.56h-22c-.66,0-1.06.35-1.28,1.16a.26.26,0,0,0,.07.26.28.28,0,0,0,.27.07l1.09-.27h.09a.6.6,0,0,1,.52.18.66.66,0,0,1,.14.63l-2.28,8.67-1,3.82a4.93,4.93,0,0,1-.52,1.66,1,1,0,0,1-1.58,0,1.08,1.08,0,0,1-.24-.66.94.94,0,0,1,.48-.81.28.28,0,0,0,.16-.19l3.09-11.51a.28.28,0,0,0,0-.25.26.26,0,0,0-.23-.11h-1a.79.79,0,0,1-.55-.25,1.09,1.09,0,0,0-.22-.18s0,.05,0,0c.11-1.83,1-3.89,3.05-3.89h22c1.93,0,2.87,2.66,2.91,2.78a1.16,1.16,0,0,1-.11.87,1,1,0,0,1-.59.45l-.94-.41-.11,0a.28.28,0,0,0-.28.34c.38,1.85,1.3,6.28,2.75,13.18l.13.61a.9.9,0,0,1-.14.76A.7.7,0,0,1,136.84,26.17Z"/><path class="cls-1" d="M137.33,26.48h0a.75.75,0,0,0,.59-.27,1,1,0,0,0,.17-.88l-.13-.61c-1.48-7-2.37-11.36-2.75-13.18a.14.14,0,0,1,.15-.17l.06,0,.94.41h.07a1.15,1.15,0,0,0,.68-.51,1.28,1.28,0,0,0,.13-1c0-.12-1-2.87-3-2.87h-22c-2.14,0-3.05,2.11-3.18,3.94a.13.13,0,0,0,0,0h0v0h0c0,.13.1.14.13.14h0l.11.09a.93.93,0,0,0,.65.29h1A.13.13,0,0,1,111,12a.15.15,0,0,1,0,.13L108,23.66a.15.15,0,0,1-.09.1,1.07,1.07,0,0,0-.56.93,1.22,1.22,0,0,0,.27.75,1.14,1.14,0,0,0,.9.43,1.11,1.11,0,0,0,.9-.45,3.2,3.2,0,0,0,.44-1.26c0-.15.06-.3.1-.44l3.28-12.49a.79.79,0,0,0-.17-.74.77.77,0,0,0-.69-.23h-.06l-1.09.27a.15.15,0,0,1-.14,0,.12.12,0,0,1,0-.13c.2-.74.54-1.06,1.15-1.06h22c.24,0,.45.16.66.5a.11.11,0,0,1,0,.14.15.15,0,0,1-.16,0l-.45-.16h0c-.66,0-.82.21-.86.51v0l0,.07a.13.13,0,0,0,0,.09l1.36,6.63c.07.33.16.8.26,1.34.26,1.39.63,3.29,1,4.86.07.31.14.63.2.91a3.82,3.82,0,0,0,.71,2A.94.94,0,0,0,137.33,26.48Zm-2-15.38a.41.41,0,0,0-.41.5c.37,1.82,1.27,6.13,2.75,13.18l.13.61a.77.77,0,0,1-.11.65.48.48,0,0,1-.38.17h0a.67.67,0,0,1-.41-.15,4,4,0,0,1-.61-1.82c-.06-.29-.12-.61-.2-.92-.38-1.57-.74-3.47-1-4.85-.1-.55-.19-1-.26-1.35l-1.35-6.58,0-.06a.4.4,0,0,0,0-.11c0-.12,0-.27.57-.28l.43.15a.42.42,0,0,0,.46-.13.37.37,0,0,0,0-.45,1.08,1.08,0,0,0-.89-.63h-22c-.73,0-1.18.4-1.41,1.26a.39.39,0,0,0,.1.38.41.41,0,0,0,.4.11l1.14-.27c.26,0,.36.05.42.13a.52.52,0,0,1,.12.51l-3.28,12.49c0,.15-.07.3-.1.46a3,3,0,0,1-.4,1.16.84.84,0,0,1-.68.34.87.87,0,0,1-.69-.33.94.94,0,0,1-.21-.58A.81.81,0,0,1,108,24a.42.42,0,0,0,.24-.28l3.09-11.51a.42.42,0,0,0-.07-.36.39.39,0,0,0-.32-.16h-1a.66.66,0,0,1-.46-.21,1.2,1.2,0,0,0-.18-.15c.14-1.78,1-3.65,2.91-3.65h22c1.86,0,2.77,2.66,2.78,2.69a1,1,0,0,1-.09.75,1,1,0,0,1-.47.39l-.9-.39A.41.41,0,0,0,135.36,11.1Z"/><path class="cls-1" d="M87.38,36.86c-.06-.93-.55-9.14,2.06-11.16,1.61-1.24,3.1-1.83,7.71-1.91l1.21,0c1.45,0,3.1-.06,4.87-.05a.79.79,0,0,1,.56.22.71.71,0,0,1,.22.53.76.76,0,0,1-.79.74H102c-1.72,0-3.38,0-4.82,0-4.45.07-5.58,1-6.58,1.76l-.2.16c-1.39,1.07-1.6,6.3-1.51,9.15,0,.15.13.39.28.39h18.92c.28,0,.59-.12.91-.12s.74-.07,1.13-.07a17.52,17.52,0,0,1,2,.07.7.7,0,0,1,.58.71c0,.33-.36.75-1.25.75H88.16C87.8,38,87.41,37.33,87.38,36.86Z"/><path class="cls-1" d="M88.16,38.16h23.33c.92,0,1.36-.44,1.38-.88a.83.83,0,0,0-.69-.85,17.86,17.86,0,0,0-2.05-.07c-.21,0-.42,0-.62,0l-.51,0a2.76,2.76,0,0,0-.51.07,2.14,2.14,0,0,1-.4.06H89.17S89,36.42,89,36.3c-.09-2.67.1-8,1.45-9l.2-.16c1-.78,2.1-1.65,6.5-1.73,1.59,0,3.25,0,4.82,0h1.23a.89.89,0,0,0,.92-.88.85.85,0,0,0-.26-.62.92.92,0,0,0-.65-.26c-1.6,0-3.13,0-4.47,0h-.41l-.6,0-.61,0c-4.62.08-6.14.66-7.79,1.93-2.67,2.06-2.18,10.34-2.11,11.27C87.28,37.38,87.7,38.16,88.16,38.16Zm22-1.53a17.7,17.7,0,0,1,2,.07.56.56,0,0,1,.46.57c0,.23-.27.63-1.12.63H88.16c-.25,0-.62-.59-.65-1-.06-.92-.55-9.06,2-11,1.6-1.24,3.08-1.8,7.63-1.88l.61,0,.6,0h.41c1.33,0,2.86-.05,4.46,0a.66.66,0,0,1,.46.18.58.58,0,0,1,.18.43.62.62,0,0,1-.65.61H102c-1.57,0-3.23,0-4.82,0-4.49.07-5.64,1-6.65,1.78l-.21.17c-1.43,1.11-1.65,6.34-1.55,9.25,0,.21.17.52.42.52h18.92a2.34,2.34,0,0,0,.46-.06,2.55,2.55,0,0,1,.46-.06l.53,0C109.73,36.65,109.93,36.63,110.13,36.63Z"/><path class="cls-1" d="M131.22,39a6.36,6.36,0,1,1-6.36,6.36A6.37,6.37,0,0,1,131.22,39Zm0,11.15a4.79,4.79,0,1,0-4.79-4.79A4.8,4.8,0,0,0,131.22,50.18Z"/><path class="cls-1" d="M131.22,51.88a6.49,6.49,0,1,0-6.49-6.49A6.5,6.5,0,0,0,131.22,51.88Zm0-12.72A6.23,6.23,0,1,1,125,45.38,6.23,6.23,0,0,1,131.22,39.16Zm0,11.15a4.93,4.93,0,1,0-4.93-4.93A4.93,4.93,0,0,0,131.22,50.31Zm0-9.59a4.66,4.66,0,1,1-4.66,4.66A4.67,4.67,0,0,1,131.22,40.72Z"/><path class="cls-1" d="M131.22,32.55a12.83,12.83,0,1,1-12.83,12.83A12.84,12.84,0,0,1,131.22,32.55Zm0,24.09A11.26,11.26,0,1,0,120,45.38,11.28,11.28,0,0,0,131.22,56.65Z"/><path class="cls-1" d="M131.22,58.35a13,13,0,1,0-13-13A13,13,0,0,0,131.22,58.35Zm0-25.66a12.69,12.69,0,1,1-12.69,12.7A12.71,12.71,0,0,1,131.22,32.69Zm0,24.09a11.4,11.4,0,1,0-11.4-11.4A11.41,11.41,0,0,0,131.22,56.78Zm0-22.53a11.13,11.13,0,1,1-11.13,11.13A11.14,11.14,0,0,1,131.22,34.25Z"/><path class="cls-1" d="M99.83,48.64a5.15,5.15,0,1,1-5.15-5.15A5.16,5.16,0,0,1,99.83,48.64Zm-8.74,0a3.59,3.59,0,1,0,3.59-3.59A3.59,3.59,0,0,0,91.09,48.64Z"/><path class="cls-1" d="M94.67,53.93a5.29,5.29,0,1,0-5.29-5.29A5.29,5.29,0,0,0,94.67,53.93Zm0-10.31a5,5,0,1,1-5,5A5,5,0,0,1,94.67,43.62Zm0,8.74A3.72,3.72,0,1,0,91,48.64,3.73,3.73,0,0,0,94.67,52.36Zm0-7.18a3.45,3.45,0,1,1-3.45,3.45A3.46,3.46,0,0,1,94.67,45.19Z"/><path class="cls-1" d="M104.86,48.64A10.19,10.19,0,1,1,94.67,38.45,10.2,10.2,0,0,1,104.86,48.64ZM86,48.64A8.63,8.63,0,1,0,94.67,40,8.64,8.64,0,0,0,86,48.64Z"/><path class="cls-1" d="M94.67,59A10.33,10.33,0,1,0,84.35,48.64,10.34,10.34,0,0,0,94.67,59Zm0-20.38A10.06,10.06,0,1,1,84.62,48.64,10.07,10.07,0,0,1,94.67,38.58Zm0,18.82a8.76,8.76,0,1,0-8.76-8.76A8.77,8.77,0,0,0,94.67,57.4Zm0-17.25a8.49,8.49,0,1,1-8.49,8.49A8.5,8.5,0,0,1,94.67,40.15Z"/><path class="cls-1" d="M112.8,23.39c3.53-11.38,4.09-11.66,4.49-11.86a5.56,5.56,0,0,1,2.22-.19h3.92l2.06,0,1.82,0c1.47,0,1.83.09,2.1.32s.93.76.28,10.19a.79.79,0,0,1-.48.67l-10,4.09-.12,0a11.82,11.82,0,0,1-2.34.27,4.9,4.9,0,0,1-1.86-.31c-1.35-.56-2.66-1.36-2.14-3Zm1.44,1a2.91,2.91,0,0,0,1.25.76,3.39,3.39,0,0,0,1.26.19,10.24,10.24,0,0,0,1.91-.21l0,0,9.3-3.8a.28.28,0,0,0,.17-.24,72.81,72.81,0,0,0,.18-7.91.28.28,0,0,0-.27-.25c-.46,0-1.47,0-2.56,0l-2.08,0h-3.93c-.57,0-1,0-1.28,0a.28.28,0,0,0-.24.16,112.69,112.69,0,0,0-3.7,10.77l-.06.19a1,1,0,0,0,0,.11A.28.28,0,0,0,114.23,24.38Z"/><path class="cls-1" d="M116.74,27a12,12,0,0,0,2.37-.27l.14,0,10-4.09a.92.92,0,0,0,.57-.79c.65-9.5.06-10-.33-10.31s-.67-.35-2.19-.35l-1.82,0-2.06,0h-3.92a5.57,5.57,0,0,0-2.28.2c-.45.22-1,.5-4.56,11.94l-.06.19c-.55,1.76.9,2.61,2.22,3.16A5,5,0,0,0,116.74,27Zm10.57-15.58c1.42,0,1.77.09,2,.29s.88.72.24,10.08a.65.65,0,0,1-.4.56l-10,4.09-.1,0a11.69,11.69,0,0,1-2.31.26,4.77,4.77,0,0,1-1.81-.3c-1.36-.57-2.55-1.3-2.07-2.84l.06-.19c3.51-11.33,4.06-11.6,4.42-11.78a5.63,5.63,0,0,1,2.16-.17h3.92l2.06,0Zm-10.57,14a10.38,10.38,0,0,0,1.94-.21l.07,0,9.3-3.81a.42.42,0,0,0,.26-.36,72.92,72.92,0,0,0,.18-7.93.42.42,0,0,0-.4-.38c-.46,0-1.48,0-2.57,0l-2.08,0H121c-1.28,0-2.27,0-2.76,0a.42.42,0,0,0-.35.23,112.69,112.69,0,0,0-3.71,10.79l-.06.19a1.11,1.11,0,0,0,0,.12.41.41,0,0,0,0,.31,2.93,2.93,0,0,0,1.32.81A3.51,3.51,0,0,0,116.74,25.46ZM127.35,13h.73a.15.15,0,0,1,.14.13A72.68,72.68,0,0,1,128,21a.15.15,0,0,1-.09.13l-9.3,3.8h0a10.09,10.09,0,0,1-1.88.21,3.26,3.26,0,0,1-1.21-.18c-.89-.37-1.13-.6-1.19-.7a.15.15,0,0,1,0-.12s0-.06,0-.11l.06-.19a112.72,112.72,0,0,1,3.69-10.75.15.15,0,0,1,.12-.08c.28,0,.7,0,1.27,0h3.93l2.08,0Z"/><path class="cls-1" d="M103.61,39.82c0-.46.13-.73.8-.74.06.05.17.17.25.25a1.83,1.83,0,0,0,.47.41c.11.05.28.13,3.2.13h3.35c.72,0,.79.09.79.34,0,.09,0,.09-.08.18l-.11.11a.29.29,0,0,0-.06.11,4.66,4.66,0,0,0,.46,4.25,3.45,3.45,0,0,0,3.25,1,.76.76,0,1,1,.16,1.52,7.72,7.72,0,0,1-.8,0,4.67,4.67,0,0,1-3.82-1.66,4.17,4.17,0,0,1-1-4,.28.28,0,0,0-.27-.33l-3.41-.09a.28.28,0,0,0-.24.44,14.35,14.35,0,0,1,2,7.69.38.38,0,0,0,.08.24.33.33,0,0,0,.2.12h7.52a.8.8,0,0,1,0,1.6h-8.52c-.3,0-.68-.7-.77-1.15a.77.77,0,0,0,0-.16,2.08,2.08,0,0,1-.08-1v0c.15-.81-.1-6.51-3-8.52A.8.8,0,0,1,103.61,39.82Z"/><path class="cls-1" d="M107.85,51.52h8.52a.94.94,0,0,0,0-1.87h-7.52s0,0-.11-.08a.26.26,0,0,1,0-.14,14.49,14.49,0,0,0-2-7.77.15.15,0,0,1,.12-.23l3.42.09a.15.15,0,0,1,.14.18,4.28,4.28,0,0,0,1,4.11,4.8,4.8,0,0,0,3.93,1.71,7.87,7.87,0,0,0,.81,0,.9.9,0,1,0-.19-1.78,3.35,3.35,0,0,1-3.13-.94,4.53,4.53,0,0,1-.43-4.13l0-.06.1-.11a.3.3,0,0,0,.12-.28c0-.4-.25-.47-.92-.47h-3.35c-2.89,0-3.06-.08-3.14-.12a1.78,1.78,0,0,1-.43-.38,3.53,3.53,0,0,0-.26-.26.15.15,0,0,0-.09,0c-.82,0-.93.43-.93.88a.94.94,0,0,0,.4.78c2.87,2,3.12,7.58,3,8.38v0a2.18,2.18,0,0,0,.09,1.13v.12C107,50.69,107.42,51.52,107.85,51.52Zm8.52-1.6a.67.67,0,0,1,.65.67.68.68,0,0,1-.65.67h-8.52c-.19,0-.55-.59-.64-1a.6.6,0,0,0-.05-.2,2.05,2.05,0,0,1-.07-.92v0c.16-.83-.1-6.62-3.08-8.66a.67.67,0,0,1-.28-.56c0-.4.09-.59.62-.61l.2.2a1.9,1.9,0,0,0,.51.44c.13.06.31.15,3.26.15h3.35c.66,0,.66.06.66.2a.27.27,0,0,1,0,0h0l0,0-.11.12a.42.42,0,0,0-.09.16,4.79,4.79,0,0,0,.48,4.37,3.6,3.6,0,0,0,3.36,1,.65.65,0,0,1,.71.55.63.63,0,0,1-.58.7,7.63,7.63,0,0,1-.78,0,4.54,4.54,0,0,1-3.72-1.61,4.05,4.05,0,0,1-.94-3.89.42.42,0,0,0-.4-.49l-3.41-.09h0a.42.42,0,0,0-.37.21.41.41,0,0,0,0,.43,14.21,14.21,0,0,1,2,7.62.51.51,0,0,0,.12.34.45.45,0,0,0,.3.16Z"/><path class="cls-1" d="M142.67,36.82a.78.78,0,0,1,.28-1.07,2.39,2.39,0,0,0,.71-.69.28.28,0,0,0,0-.34,15.42,15.42,0,0,0-17.59-5.13c-5.9,2.11-10,7.27-10,12.55a.78.78,0,0,1-1.57,0c0-5.93,4.55-11.7,11.06-14A17,17,0,0,1,145,33.91a.78.78,0,0,1,.17.42.28.28,0,0,0,.06.14.78.78,0,0,1,.11.76,3.94,3.94,0,0,1-1.61,1.88A.8.8,0,0,1,142.67,36.82Z"/><path class="cls-1" d="M115.26,43.07a.92.92,0,0,0,.92-.92c0-5.23,4.08-10.34,9.93-12.43a15.68,15.68,0,0,1,5.29-.94,15.85,15.85,0,0,1,12.16,6,.15.15,0,0,1,0,.18,2.25,2.25,0,0,1-.67.65.92.92,0,0,0-.33,1.25.93.93,0,0,0,.81.45h0a.9.9,0,0,0,.45-.12,4.08,4.08,0,0,0,1.67-1.95.91.91,0,0,0-.13-.89.15.15,0,0,1,0-.07.91.91,0,0,0-.2-.49A17.09,17.09,0,0,0,125.49,28c-6.56,2.35-11.15,8.17-11.15,14.15A.92.92,0,0,0,115.26,43.07ZM131.4,28.51a16,16,0,0,0-5.38,1c-6,2.13-10.11,7.34-10.11,12.68a.65.65,0,0,1-1.3,0c0-5.87,4.51-11.59,11-13.9A16.82,16.82,0,0,1,144.92,34a.65.65,0,0,1,.14.34.41.41,0,0,0,.08.21.65.65,0,0,1,.09.63A3.8,3.8,0,0,1,143.68,37a.63.63,0,0,1-.31.08.67.67,0,0,1-.58-.32.65.65,0,0,1,.24-.89,2.53,2.53,0,0,0,.76-.73.42.42,0,0,0,0-.51A16.11,16.11,0,0,0,131.4,28.51Z"/><polyline class="cls-2" points="125.36 112.75 83.34 112.75 83.34 76.56 145.85 76.56 145.85 112.75 138.03 112.75"/><polyline class="cls-2" points="83.34 8.47 83.34 1.3 91.22 1.3"/><polyline class="cls-2" points="138.89 0.95 146.07 0.95 146.07 8.83"/><polyline class="cls-2" points="146.07 60.29 146.07 67.46 138.18 67.46"/><polyline class="cls-2" points="90.51 67.82 83.34 67.82 83.34 59.93"/><path class="cls-1" d="M126,106.4l8.69,5.66,8.69,5.66L136,119.32l3.72,6.45L135.87,128l-3.71-6.46-5.1,5.61-.53-10.36L126,106.4m-2.2-3.82.2,3.92.53,10.36.53,10.36.25,4.8,3.24-3.56,3.25-3.58,2.35,4.08,1,1.74,1.74-1,3.81-2.19,1.73-1-1-1.73-2.35-4.07,4.73-1,4.7-1-4-2.63-8.69-5.66-8.69-5.66-3.29-2.14Z"/><path class="cls-2" d="M120.59,84.55V96.89a5.64,5.64,0,0,1-5.64,5.64h0a5.64,5.64,0,0,1-5.64-5.64V84.55"/><path class="cls-2" d="M93.91,93.33h5a4.6,4.6,0,0,1,4.6,4.6h0a4.6,4.6,0,0,1-4.6,4.6h-5"/><path class="cls-2" d="M93.91,85.58h3.45a3.88,3.88,0,0,1,3.88,3.88h0a3.88,3.88,0,0,1-3.88,3.88H93.91"/><line class="cls-2" x1="93.56" y1="84.55" x2="93.56" y2="103.59"/><line class="cls-2" x1="131.28" y1="93.83" x2="131.28" y2="103.59"/><polyline class="cls-2" points="138.01 85.47 134.65 90.13 131.28 94.78 127.91 90.13 124.54 85.47"/><g class="cls-3"><path class="cls-1" d="M221.19,23.84a3.9,3.9,0,0,1-.66-1.9c-.06-.3-.12-.61-.2-.92-.38-1.57-.74-3.47-1-4.86-.1-.55-.19-1-.26-1.35l-1.36-6.63,0-.09a.28.28,0,0,0,0-.08c0-.2.1-.39.73-.4l.45.16a.28.28,0,0,0,.31-.09.24.24,0,0,0,0-.3c-.3-.49-.59-.56-.77-.56h-22c-.66,0-1.06.35-1.28,1.16a.26.26,0,0,0,.07.26.28.28,0,0,0,.27.07l1.09-.27h.09a.6.6,0,0,1,.52.18.66.66,0,0,1,.14.63l-2.28,8.67-1,3.82a4.93,4.93,0,0,1-.52,1.66A1,1,0,0,1,192,23a1.08,1.08,0,0,1-.24-.66.94.94,0,0,1,.48-.81.28.28,0,0,0,.16-.19l3.09-11.51a.28.28,0,0,0,0-.25.26.26,0,0,0-.23-.11h-1a.79.79,0,0,1-.55-.25,1.09,1.09,0,0,0-.22-.18s0,.05,0,0c.11-1.83,1-3.89,3.05-3.89h22c1.93,0,2.87,2.66,2.91,2.78a1.16,1.16,0,0,1-.11.87,1,1,0,0,1-.59.45l-.94-.41-.11,0a.28.28,0,0,0-.28.34c.38,1.85,1.3,6.28,2.75,13.18l.13.61a.9.9,0,0,1-.14.76A.7.7,0,0,1,221.19,23.84Z"/><path class="cls-1" d="M221.68,24.15h0a.75.75,0,0,0,.59-.27,1,1,0,0,0,.17-.88l-.13-.61c-1.48-7-2.37-11.36-2.75-13.18a.14.14,0,0,1,.15-.17l.06,0,.94.41h.07a1.15,1.15,0,0,0,.68-.51,1.28,1.28,0,0,0,.13-1c0-.12-1-2.87-3-2.87h-22c-2.14,0-3.05,2.11-3.18,3.94a.13.13,0,0,0,0,0h0v0h0c0,.13.1.14.13.14h0l.11.09a.93.93,0,0,0,.65.29h1a.13.13,0,0,1,.12.06.15.15,0,0,1,0,.13L192.3,21.33a.15.15,0,0,1-.09.1,1.07,1.07,0,0,0-.56.93,1.22,1.22,0,0,0,.27.75,1.14,1.14,0,0,0,.9.43,1.11,1.11,0,0,0,.9-.45,3.2,3.2,0,0,0,.44-1.26c0-.15.06-.3.1-.44l3.28-12.49a.79.79,0,0,0-.17-.74.77.77,0,0,0-.69-.23h-.06l-1.09.27a.15.15,0,0,1-.14,0,.12.12,0,0,1,0-.13c.2-.74.54-1.06,1.15-1.06h22c.24,0,.45.16.66.5a.11.11,0,0,1,0,.14.15.15,0,0,1-.16,0l-.45-.16h0c-.66,0-.82.21-.86.51v0l0,.07a.13.13,0,0,0,0,.09l1.36,6.63c.07.33.16.8.26,1.34.26,1.39.63,3.29,1,4.86.07.31.14.63.2.91a3.82,3.82,0,0,0,.71,2A.94.94,0,0,0,221.68,24.15Zm-2-15.38a.41.41,0,0,0-.41.5c.37,1.82,1.27,6.13,2.75,13.18l.13.61a.77.77,0,0,1-.11.65.48.48,0,0,1-.38.17h0a.67.67,0,0,1-.41-.15,4,4,0,0,1-.61-1.82c-.06-.29-.12-.61-.2-.92-.38-1.57-.74-3.47-1-4.85-.1-.55-.19-1-.26-1.35l-1.35-6.58,0-.06a.4.4,0,0,0,0-.11c0-.12,0-.27.57-.28l.43.15a.42.42,0,0,0,.46-.13.37.37,0,0,0,0-.45,1.08,1.08,0,0,0-.89-.63h-22c-.73,0-1.18.4-1.41,1.26a.39.39,0,0,0,.1.38.41.41,0,0,0,.4.11l1.14-.27c.26,0,.36.05.42.13a.52.52,0,0,1,.12.51L194,21.31c0,.15-.07.3-.1.46a3,3,0,0,1-.4,1.16.84.84,0,0,1-.68.34.87.87,0,0,1-.69-.33.94.94,0,0,1-.21-.58.81.81,0,0,1,.4-.69.42.42,0,0,0,.24-.28l3.09-11.51a.42.42,0,0,0-.07-.36.39.39,0,0,0-.32-.16h-1a.66.66,0,0,1-.46-.21A1.2,1.2,0,0,0,193.6,9c.14-1.78,1-3.65,2.91-3.65h22c1.86,0,2.77,2.66,2.78,2.69a1,1,0,0,1-.09.75,1,1,0,0,1-.47.39l-.9-.39A.41.41,0,0,0,219.71,8.77Z"/></g><g class="cls-3"><path class="cls-1" d="M171.73,34.53c-.06-.93-.55-9.14,2.06-11.16,1.61-1.24,3.1-1.83,7.71-1.91l1.21,0c1.45,0,3.1-.06,4.87-.05a.79.79,0,0,1,.56.22.71.71,0,0,1,.22.53.76.76,0,0,1-.79.74h-1.23c-1.72,0-3.38,0-4.82,0-4.45.07-5.58,1-6.58,1.76l-.2.16c-1.39,1.07-1.6,6.3-1.51,9.15,0,.15.13.39.28.39h18.92c.28,0,.59-.12.91-.12s.74-.07,1.13-.07a17.52,17.52,0,0,1,2,.07.7.7,0,0,1,.58.71c0,.33-.36.75-1.25.75H172.51C172.15,35.7,171.76,35,171.73,34.53Z"/><path class="cls-1" d="M172.51,35.83h23.33c.92,0,1.36-.44,1.38-.88a.83.83,0,0,0-.69-.85,17.86,17.86,0,0,0-2.05-.07c-.21,0-.42,0-.62,0l-.51,0a2.76,2.76,0,0,0-.51.07,2.14,2.14,0,0,1-.4.06H173.52s-.14-.14-.15-.26c-.09-2.67.1-8,1.45-9l.2-.16c1-.78,2.1-1.65,6.5-1.73,1.59,0,3.25,0,4.82,0h1.23a.89.89,0,0,0,.92-.88.85.85,0,0,0-.26-.62.92.92,0,0,0-.65-.26c-1.6,0-3.13,0-4.47,0h-.41l-.6,0-.61,0c-4.62.08-6.14.66-7.79,1.93-2.67,2.06-2.18,10.34-2.11,11.27C171.63,35.05,172.05,35.83,172.51,35.83Zm22-1.53a17.7,17.7,0,0,1,2,.07.56.56,0,0,1,.46.57c0,.23-.27.63-1.12.63H172.51c-.25,0-.62-.59-.65-1-.06-.92-.55-9.06,2-11,1.6-1.24,3.08-1.8,7.63-1.88l.61,0,.6,0h.41c1.33,0,2.86-.05,4.46,0a.66.66,0,0,1,.46.18.58.58,0,0,1,.18.43.62.62,0,0,1-.65.61h-1.23c-1.57,0-3.23,0-4.82,0-4.49.07-5.64,1-6.65,1.78l-.21.17c-1.43,1.11-1.65,6.34-1.55,9.25,0,.21.17.52.42.52h18.92a2.34,2.34,0,0,0,.46-.06,2.55,2.55,0,0,1,.46-.06l.53,0C194.07,34.32,194.28,34.3,194.48,34.3Z"/></g><g class="cls-3"><path class="cls-1" d="M215.56,30.23a12.83,12.83,0,1,1-12.83,12.83A12.84,12.84,0,0,1,215.56,30.23Zm0,24.09A11.26,11.26,0,1,0,204.3,43.05,11.28,11.28,0,0,0,215.56,54.32Z"/><path class="cls-1" d="M215.56,56a13,13,0,1,0-13-13A13,13,0,0,0,215.56,56Zm0-25.66a12.69,12.69,0,1,1-12.69,12.7A12.71,12.71,0,0,1,215.56,30.36Zm0,24.09a11.4,11.4,0,1,0-11.4-11.4A11.41,11.41,0,0,0,215.56,54.45Zm0-22.53a11.13,11.13,0,1,1-11.13,11.13A11.14,11.14,0,0,1,215.56,31.92Z"/></g><g class="cls-3"><path class="cls-1" d="M189.21,46.31A10.19,10.19,0,1,1,179,36.12,10.2,10.2,0,0,1,189.21,46.31Zm-18.82,0A8.63,8.63,0,1,0,179,37.68,8.64,8.64,0,0,0,170.4,46.31Z"/><path class="cls-1" d="M179,56.64A10.33,10.33,0,1,0,168.7,46.31,10.34,10.34,0,0,0,179,56.64Zm0-20.38A10.06,10.06,0,1,1,169,46.31,10.07,10.07,0,0,1,179,36.25Zm0,18.82a8.76,8.76,0,1,0-8.76-8.76A8.77,8.77,0,0,0,179,55.07Zm0-17.25a8.49,8.49,0,1,1-8.49,8.49A8.5,8.5,0,0,1,179,37.82Z"/></g><g class="cls-3"><path class="cls-1" d="M188,37.49c0-.46.13-.73.8-.74.06.05.17.17.25.25a1.83,1.83,0,0,0,.47.41c.11.05.28.13,3.2.13H196c.72,0,.79.09.79.34,0,.09,0,.09-.08.18l-.11.11a.29.29,0,0,0-.06.11A4.66,4.66,0,0,0,197,42.5a3.45,3.45,0,0,0,3.25,1,.76.76,0,1,1,.16,1.52,7.72,7.72,0,0,1-.8,0,4.67,4.67,0,0,1-3.82-1.66,4.17,4.17,0,0,1-1-4,.28.28,0,0,0-.27-.33L191.15,39a.28.28,0,0,0-.24.44,14.35,14.35,0,0,1,2,7.69.38.38,0,0,0,.08.24.33.33,0,0,0,.2.12h7.52a.8.8,0,0,1,0,1.6H192.2c-.3,0-.68-.7-.77-1.15a.77.77,0,0,0,0-.16,2.08,2.08,0,0,1-.08-1v0c.15-.81-.1-6.51-3-8.52A.8.8,0,0,1,188,37.49Z"/><path class="cls-1" d="M192.2,49.19h8.52a.94.94,0,0,0,0-1.87H193.2s0,0-.11-.08a.26.26,0,0,1,0-.14,14.49,14.49,0,0,0-2-7.77.15.15,0,0,1,.12-.23l3.42.09a.15.15,0,0,1,.14.18,4.28,4.28,0,0,0,1,4.11,4.8,4.8,0,0,0,3.93,1.71,7.87,7.87,0,0,0,.81,0,.9.9,0,1,0-.19-1.78,3.35,3.35,0,0,1-3.13-.94,4.53,4.53,0,0,1-.43-4.13l0-.06.1-.11a.3.3,0,0,0,.12-.28c0-.4-.25-.47-.92-.47h-3.35c-2.89,0-3.06-.08-3.14-.12a1.78,1.78,0,0,1-.43-.38,3.53,3.53,0,0,0-.26-.26.15.15,0,0,0-.09,0c-.82,0-.93.43-.93.88a.94.94,0,0,0,.4.78c2.87,2,3.12,7.58,3,8.38v0a2.18,2.18,0,0,0,.1,1.13v.12C191.38,48.36,191.77,49.19,192.2,49.19Zm8.52-1.6a.67.67,0,0,1,.65.67.68.68,0,0,1-.65.67H192.2c-.19,0-.55-.59-.64-1a.6.6,0,0,0-.05-.2,2.05,2.05,0,0,1-.07-.92v0c.16-.83-.1-6.62-3.08-8.66a.67.67,0,0,1-.28-.56c0-.4.09-.59.62-.61l.2.2a1.9,1.9,0,0,0,.51.44c.13.06.31.15,3.26.15H196c.66,0,.66.06.66.2a.27.27,0,0,1,0,0h0l0,0-.11.12a.42.42,0,0,0-.09.16,4.79,4.79,0,0,0,.48,4.37,3.6,3.6,0,0,0,3.36,1,.65.65,0,0,1,.71.55.63.63,0,0,1-.58.7,7.63,7.63,0,0,1-.78,0,4.54,4.54,0,0,1-3.72-1.61,4.05,4.05,0,0,1-.94-3.89.42.42,0,0,0-.4-.49l-3.41-.09h0a.42.42,0,0,0-.37.21.41.41,0,0,0,0,.43,14.21,14.21,0,0,1,2,7.62.51.51,0,0,0,.12.34.45.45,0,0,0,.3.16Z"/></g><g class="cls-3"><path class="cls-1" d="M227,34.49a.78.78,0,0,1,.28-1.07,2.39,2.39,0,0,0,.71-.69.28.28,0,0,0,0-.34,15.42,15.42,0,0,0-17.59-5.13c-5.9,2.11-10,7.27-10,12.55a.78.78,0,0,1-1.57,0c0-5.93,4.55-11.7,11.06-14a17,17,0,0,1,19.49,5.79.78.78,0,0,1,.17.42.28.28,0,0,0,.06.14.78.78,0,0,1,.11.76,3.94,3.94,0,0,1-1.61,1.88A.8.8,0,0,1,227,34.49Z"/><path class="cls-1" d="M199.61,40.74a.92.92,0,0,0,.92-.92c0-5.23,4.08-10.34,9.93-12.43a15.68,15.68,0,0,1,5.29-.94,15.85,15.85,0,0,1,12.16,6,.15.15,0,0,1,0,.18,2.25,2.25,0,0,1-.67.65.92.92,0,0,0-.33,1.25.93.93,0,0,0,.81.45h0a.9.9,0,0,0,.45-.12,4.08,4.08,0,0,0,1.67-1.95.91.91,0,0,0-.13-.89.15.15,0,0,1,0-.07.91.91,0,0,0-.2-.49,17.09,17.09,0,0,0-19.63-5.83c-6.56,2.35-11.15,8.17-11.15,14.15A.92.92,0,0,0,199.61,40.74Zm16.14-14.55a16,16,0,0,0-5.38,1c-6,2.13-10.11,7.34-10.11,12.68a.65.65,0,0,1-1.3,0c0-5.87,4.51-11.59,11-13.9a16.82,16.82,0,0,1,19.34,5.75.65.65,0,0,1,.14.34.41.41,0,0,0,.08.21.65.65,0,0,1,.09.63A3.8,3.8,0,0,1,228,34.66a.63.63,0,0,1-.31.08.67.67,0,0,1-.58-.32.65.65,0,0,1,.24-.89,2.53,2.53,0,0,0,.76-.73.42.42,0,0,0,0-.51A16.11,16.11,0,0,0,215.75,26.19Z"/></g><g class="cls-3"><path class="cls-1" d="M52.49,23.84a3.9,3.9,0,0,1-.66-1.9c-.06-.3-.12-.61-.2-.92-.38-1.57-.74-3.47-1-4.86-.1-.55-.19-1-.26-1.35L49,8.19l0-.09a.28.28,0,0,0,0-.08c0-.2.1-.39.73-.4l.45.16a.28.28,0,0,0,.31-.09.24.24,0,0,0,0-.3c-.3-.49-.59-.56-.77-.56h-22c-.66,0-1.06.35-1.28,1.16a.26.26,0,0,0,.07.26.28.28,0,0,0,.27.07L28,8.06H28a.6.6,0,0,1,.52.18.66.66,0,0,1,.14.63l-2.28,8.67-1,3.82A4.93,4.93,0,0,1,24.91,23a1,1,0,0,1-1.58,0,1.08,1.08,0,0,1-.24-.66.94.94,0,0,1,.48-.81.28.28,0,0,0,.16-.19L26.83,9.85a.28.28,0,0,0,0-.25.26.26,0,0,0-.23-.11h-1A.79.79,0,0,1,25,9.26a1.09,1.09,0,0,0-.22-.18s0,.05,0,0c.11-1.83,1-3.89,3.05-3.89h22c1.93,0,2.87,2.66,2.91,2.78a1.16,1.16,0,0,1-.11.87,1,1,0,0,1-.59.45l-.94-.41L51,8.9a.28.28,0,0,0-.28.34c.38,1.85,1.3,6.28,2.75,13.18l.13.61a.9.9,0,0,1-.14.76A.7.7,0,0,1,52.49,23.84Z"/><path class="cls-1" d="M53,24.15h0a.75.75,0,0,0,.59-.27,1,1,0,0,0,.17-.88l-.13-.61c-1.48-7-2.37-11.36-2.75-13.18A.14.14,0,0,1,51,9l.06,0,.94.41h.07A1.15,1.15,0,0,0,52.75,9a1.28,1.28,0,0,0,.13-1c0-.12-1-2.87-3-2.87h-22c-2.14,0-3.05,2.11-3.18,3.94a.13.13,0,0,0,0,0h0v0h0c0,.13.1.14.13.14h0l.11.09a.93.93,0,0,0,.65.29h1a.13.13,0,0,1,.12.06.15.15,0,0,1,0,.13L23.61,21.33a.15.15,0,0,1-.09.1,1.07,1.07,0,0,0-.56.93,1.22,1.22,0,0,0,.27.75,1.14,1.14,0,0,0,.9.43,1.11,1.11,0,0,0,.9-.45,3.2,3.2,0,0,0,.44-1.26c0-.15.06-.3.1-.44L28.84,8.89a.79.79,0,0,0-.17-.74A.77.77,0,0,0,28,7.92h-.06l-1.09.27a.15.15,0,0,1-.14,0,.12.12,0,0,1,0-.13c.2-.74.54-1.06,1.15-1.06h22c.24,0,.45.16.66.5a.11.11,0,0,1,0,.14.15.15,0,0,1-.16,0l-.45-.16h0c-.66,0-.82.21-.86.51v0l0,.07a.13.13,0,0,0,0,.09l1.36,6.63c.07.33.16.8.26,1.34.26,1.39.63,3.29,1,4.86.07.31.14.63.2.91a3.82,3.82,0,0,0,.71,2A.94.94,0,0,0,53,24.15ZM51,8.77a.41.41,0,0,0-.41.5c.37,1.82,1.27,6.13,2.75,13.18l.13.61a.77.77,0,0,1-.11.65.48.48,0,0,1-.38.17h0a.67.67,0,0,1-.41-.15A4,4,0,0,1,52,21.92c-.06-.29-.12-.61-.2-.92-.38-1.57-.74-3.47-1-4.85-.1-.55-.19-1-.26-1.35L49.15,8.21l0-.06a.4.4,0,0,0,0-.11c0-.12,0-.27.57-.28l.43.15a.42.42,0,0,0,.46-.13.37.37,0,0,0,0-.45,1.08,1.08,0,0,0-.89-.63h-22c-.73,0-1.18.4-1.41,1.26a.39.39,0,0,0,.1.38.41.41,0,0,0,.4.11L28,8.19c.26,0,.36.05.42.13a.52.52,0,0,1,.12.51L25.3,21.31c0,.15-.07.3-.1.46a3,3,0,0,1-.4,1.16.84.84,0,0,1-.68.34.87.87,0,0,1-.69-.33.94.94,0,0,1-.21-.58.81.81,0,0,1,.4-.69.42.42,0,0,0,.24-.28L27,9.89a.42.42,0,0,0-.07-.36.39.39,0,0,0-.32-.16h-1a.66.66,0,0,1-.46-.21A1.2,1.2,0,0,0,24.9,9c.14-1.78,1-3.65,2.91-3.65h22c1.86,0,2.77,2.66,2.78,2.69a1,1,0,0,1-.09.75,1,1,0,0,1-.47.39l-.9-.39A.41.41,0,0,0,51,8.77Z"/></g><g class="cls-3"><path class="cls-1" d="M3,34.53c-.06-.93-.55-9.14,2.06-11.16,1.61-1.24,3.1-1.83,7.71-1.91l1.21,0c1.45,0,3.1-.06,4.87-.05a.79.79,0,0,1,.56.22.71.71,0,0,1,.22.53.76.76,0,0,1-.79.74H17.64c-1.72,0-3.38,0-4.82,0-4.45.07-5.58,1-6.58,1.76l-.2.16C4.65,25.9,4.44,31.13,4.54,34c0,.15.13.39.28.39H23.74c.28,0,.59-.12.91-.12s.74-.07,1.13-.07a17.52,17.52,0,0,1,2,.07.7.7,0,0,1,.58.71c0,.33-.36.75-1.25.75H3.81C3.45,35.7,3.06,35,3,34.53Z"/><path class="cls-1" d="M3.81,35.83H27.14c.92,0,1.36-.44,1.38-.88a.83.83,0,0,0-.69-.85A17.86,17.86,0,0,0,25.78,34c-.21,0-.42,0-.62,0l-.51,0a2.76,2.76,0,0,0-.51.07,2.14,2.14,0,0,1-.4.06H4.82s-.14-.14-.15-.26c-.09-2.67.1-8,1.45-9l.2-.16c1-.78,2.1-1.65,6.5-1.73,1.59,0,3.25,0,4.82,0h1.23a.89.89,0,0,0,.92-.88.85.85,0,0,0-.26-.62.92.92,0,0,0-.65-.26c-1.6,0-3.13,0-4.47,0H14l-.6,0-.61,0C8.17,21.41,6.66,22,5,23.27,2.34,25.33,2.83,33.61,2.9,34.54,2.93,35.05,3.35,35.83,3.81,35.83Zm22-1.53a17.7,17.7,0,0,1,2,.07.56.56,0,0,1,.46.57c0,.23-.27.63-1.12.63H3.81c-.25,0-.62-.59-.65-1-.06-.92-.55-9.06,2-11,1.6-1.24,3.08-1.8,7.63-1.88l.61,0,.6,0h.41c1.33,0,2.86-.05,4.46,0a.66.66,0,0,1,.46.18.58.58,0,0,1,.18.43.62.62,0,0,1-.65.61H17.64c-1.57,0-3.23,0-4.82,0-4.49.07-5.64,1-6.65,1.78L6,24.72C4.53,25.83,4.31,31.06,4.41,34c0,.21.17.52.42.52H23.74a2.34,2.34,0,0,0,.46-.06,2.55,2.55,0,0,1,.46-.06l.53,0C25.38,34.32,25.58,34.3,25.78,34.3Z"/></g><g class="cls-3"><path class="cls-1" d="M46.87,30.23A12.83,12.83,0,1,1,34,43.05,12.84,12.84,0,0,1,46.87,30.23Zm0,24.09A11.26,11.26,0,1,0,35.6,43.05,11.28,11.28,0,0,0,46.87,54.32Z"/><path class="cls-1" d="M46.87,56a13,13,0,1,0-13-13A13,13,0,0,0,46.87,56Zm0-25.66a12.69,12.69,0,1,1-12.69,12.7A12.71,12.71,0,0,1,46.87,30.36Zm0,24.09a11.4,11.4,0,1,0-11.4-11.4A11.41,11.41,0,0,0,46.87,54.45Zm0-22.53A11.13,11.13,0,1,1,35.74,43.05,11.14,11.14,0,0,1,46.87,31.92Z"/></g><g class="cls-3"><path class="cls-1" d="M20.52,46.31A10.19,10.19,0,1,1,10.33,36.12,10.2,10.2,0,0,1,20.52,46.31Zm-18.82,0a8.63,8.63,0,1,0,8.63-8.63A8.64,8.64,0,0,0,1.7,46.31Z"/><path class="cls-1" d="M10.33,56.64A10.33,10.33,0,1,0,0,46.31,10.34,10.34,0,0,0,10.33,56.64Zm0-20.38A10.06,10.06,0,1,1,.27,46.31,10.07,10.07,0,0,1,10.33,36.25Zm0,18.82a8.76,8.76,0,1,0-8.76-8.76A8.77,8.77,0,0,0,10.33,55.07Zm0-17.25a8.49,8.49,0,1,1-8.49,8.49A8.5,8.5,0,0,1,10.33,37.82Z"/></g><g class="cls-3"><path class="cls-1" d="M19.26,37.49c0-.46.13-.73.8-.74.06.05.17.17.25.25a1.83,1.83,0,0,0,.47.41c.11.05.28.13,3.2.13h3.35c.72,0,.79.09.79.34,0,.09,0,.09-.08.18l-.11.11a.29.29,0,0,0-.06.11,4.66,4.66,0,0,0,.46,4.25,3.45,3.45,0,0,0,3.25,1A.76.76,0,1,1,31.72,45a7.72,7.72,0,0,1-.8,0,4.67,4.67,0,0,1-3.82-1.66,4.17,4.17,0,0,1-1-4,.28.28,0,0,0-.27-.33L22.46,39a.28.28,0,0,0-.24.44,14.35,14.35,0,0,1,2,7.69.38.38,0,0,0,.08.24.33.33,0,0,0,.2.12H32a.8.8,0,0,1,0,1.6H23.5c-.3,0-.68-.7-.77-1.15a.77.77,0,0,0,0-.16,2.08,2.08,0,0,1-.08-1v0c.15-.81-.1-6.51-3-8.52A.8.8,0,0,1,19.26,37.49Z"/><path class="cls-1" d="M23.5,49.19H32a.94.94,0,0,0,0-1.87H24.5s0,0-.11-.08a.26.26,0,0,1,0-.14,14.49,14.49,0,0,0-2-7.77.15.15,0,0,1,.12-.23l3.42.09a.15.15,0,0,1,.14.18,4.28,4.28,0,0,0,1,4.11,4.8,4.8,0,0,0,3.93,1.71,7.87,7.87,0,0,0,.81,0,.9.9,0,1,0-.19-1.78,3.35,3.35,0,0,1-3.13-.94A4.53,4.53,0,0,1,28,38.29l0-.06.1-.11a.3.3,0,0,0,.12-.28c0-.4-.25-.47-.92-.47H24c-2.89,0-3.06-.08-3.14-.12a1.78,1.78,0,0,1-.43-.38,3.53,3.53,0,0,0-.26-.26.15.15,0,0,0-.09,0c-.82,0-.93.43-.93.88a.94.94,0,0,0,.4.78c2.87,2,3.12,7.58,3,8.38v0a2.18,2.18,0,0,0,.1,1.13v.12C22.68,48.36,23.08,49.19,23.5,49.19ZM32,47.59a.67.67,0,0,1,.65.67.68.68,0,0,1-.65.67H23.5c-.19,0-.55-.59-.64-1a.6.6,0,0,0-.05-.2,2.05,2.05,0,0,1-.07-.92v0c.16-.83-.1-6.62-3.08-8.66a.67.67,0,0,1-.28-.56c0-.4.09-.59.62-.61l.2.2a1.9,1.9,0,0,0,.51.44c.13.06.31.15,3.26.15h3.35c.66,0,.66.06.66.2a.27.27,0,0,1,0,0h0l0,0-.11.12a.42.42,0,0,0-.09.16,4.79,4.79,0,0,0,.48,4.37,3.6,3.6,0,0,0,3.36,1,.65.65,0,0,1,.71.55.63.63,0,0,1-.58.7,7.63,7.63,0,0,1-.78,0,4.54,4.54,0,0,1-3.72-1.61,4.05,4.05,0,0,1-.94-3.89.42.42,0,0,0-.4-.49l-3.41-.09h0a.42.42,0,0,0-.37.21.41.41,0,0,0,0,.43,14.21,14.21,0,0,1,2,7.62.51.51,0,0,0,.12.34.45.45,0,0,0,.3.16Z"/></g><g class="cls-3"><path class="cls-1" d="M58.32,34.49a.78.78,0,0,1,.28-1.07,2.39,2.39,0,0,0,.71-.69.28.28,0,0,0,0-.34,15.42,15.42,0,0,0-17.59-5.13c-5.9,2.11-10,7.27-10,12.55a.78.78,0,0,1-1.57,0c0-5.93,4.55-11.7,11.06-14a17,17,0,0,1,19.49,5.79.78.78,0,0,1,.17.42.28.28,0,0,0,.06.14.78.78,0,0,1,.11.76,3.94,3.94,0,0,1-1.61,1.88A.8.8,0,0,1,58.32,34.49Z"/><path class="cls-1" d="M30.91,40.74a.92.92,0,0,0,.92-.92c0-5.23,4.08-10.34,9.93-12.43A15.68,15.68,0,0,1,47,26.45a15.85,15.85,0,0,1,12.16,6,.15.15,0,0,1,0,.18,2.25,2.25,0,0,1-.67.65.92.92,0,0,0-.33,1.25A.93.93,0,0,0,59,35h0a.9.9,0,0,0,.45-.12,4.08,4.08,0,0,0,1.67-1.95.91.91,0,0,0-.13-.89A.15.15,0,0,1,61,32a.91.91,0,0,0-.2-.49,17.09,17.09,0,0,0-19.63-5.83C34.58,28,30,33.84,30,39.82A.92.92,0,0,0,30.91,40.74ZM47,26.19a16,16,0,0,0-5.38,1c-6,2.13-10.11,7.34-10.11,12.68a.65.65,0,0,1-1.3,0c0-5.87,4.51-11.59,11-13.9a16.82,16.82,0,0,1,19.34,5.75.65.65,0,0,1,.14.34.41.41,0,0,0,.08.21.65.65,0,0,1,.09.63,3.8,3.8,0,0,1-1.56,1.82.63.63,0,0,1-.31.08.67.67,0,0,1-.58-.32.65.65,0,0,1,.24-.89,2.53,2.53,0,0,0,.76-.73.42.42,0,0,0,0-.51A16.11,16.11,0,0,0,47,26.19Z"/></g></svg>