<svg xmlns="http://www.w3.org/2000/svg" viewBox="0 0 360.56 56.02">
  <defs>
    <style>
      .cls-1 {
        fill: #fff;
      }
    </style>
  </defs>
  <title>fact-2</title>
  <g id="Слой_2" data-name="Слой 2">
    <g id="icons">
      <g>
        <path class="cls-1" d="M205.92,21.74h0a1,1,0,0,0,.6-.21,4,4,0,0,0,.75-2.09c.06-.3.13-.64.21-1,.4-1.67.78-3.67,1.06-5.13.11-.58.2-1.07.27-1.42l1.44-7a.16.16,0,0,0,0-.1.3.3,0,0,0,0-.08s0,0,0,0c0-.32-.21-.53-.9-.54h-.05l-.47.16a.17.17,0,0,1-.18,0,.12.12,0,0,1,0-.15c.22-.35.45-.53.7-.53h23.21c.64,0,1,.34,1.21,1.12,0,0,0,.09,0,.14a.15.15,0,0,1-.15,0l-1.14-.28h-.06a.85.85,0,0,0-.74.24.84.84,0,0,0-.17.78l3.46,13.18c0,.15.07.31.1.47a3.58,3.58,0,0,0,.47,1.33,1.21,1.21,0,0,0,1.9,0,1.31,1.31,0,0,0,.28-.79,1.13,1.13,0,0,0-.6-1,.2.2,0,0,1-.09-.11L233.65,6.62a.17.17,0,0,1,0-.14.14.14,0,0,1,.12-.06l1.08,0a1,1,0,0,0,.68-.31l.12-.1h0s.12,0,.14-.15h0v0h0a0,0,0,0,0,0,0c-.13-1.93-1.09-4.16-3.35-4.16H209.23c-2.16,0-3.16,2.9-3.2,3a1.33,1.33,0,0,0,.13,1,1.27,1.27,0,0,0,.71.54H207l1-.43a.1.1,0,0,1,.06,0,.13.13,0,0,1,.1,0,.16.16,0,0,1,.06.15c-.4,1.92-1.34,6.47-2.9,13.91l-.14.64a1.09,1.09,0,0,0,.18.92A.77.77,0,0,0,205.92,21.74Z"/>
        <path class="cls-1" d="M241.91,20.54h1.3c1.65,0,3.41,0,5.08,0,4.64.08,5.81,1,6.85,1.82l.22.17c1.43,1.11,1.62,6.72,1.53,9.53,0,.13-.11.28-.16.28h-20a2.33,2.33,0,0,1-.43-.06,3.07,3.07,0,0,0-.53-.07l-.54,0c-.21,0-.43,0-.66,0a17.1,17.1,0,0,0-2.16.08.88.88,0,0,0-.74.9c0,.46.5.92,1.46.92H257.8c.48,0,.93-.82,1-1.36.06-1,.59-9.72-2.23-11.89-1.74-1.35-3.34-2-8.22-2l-.64,0-.64,0h-.43c-1.4,0-3-.05-4.71-.05a1,1,0,0,0-.68.28.92.92,0,0,0-.28.65A.94.94,0,0,0,241.91,20.54Z"/>
        <path class="cls-1" d="M212.37,34.84a6.85,6.85,0,1,0,6.85,6.85A6.86,6.86,0,0,0,212.37,34.84Zm0,11.77a4.92,4.92,0,1,1,4.92-4.92A4.92,4.92,0,0,1,212.37,46.61Z"/>
        <path class="cls-1" d="M212.37,28a13.68,13.68,0,1,0,13.68,13.68A13.69,13.69,0,0,0,212.37,28Zm0,25.42a11.74,11.74,0,1,1,11.75-11.74A11.76,11.76,0,0,1,212.37,53.43Z"/>
        <path class="cls-1" d="M250.93,39.55a5.58,5.58,0,1,0,5.57,5.58A5.58,5.58,0,0,0,250.93,39.55Zm0,9.22a3.65,3.65,0,1,1,3.64-3.64A3.66,3.66,0,0,1,250.93,48.77Z"/>
        <path class="cls-1" d="M250.93,34.23a10.9,10.9,0,1,0,10.89,10.9A10.91,10.91,0,0,0,250.93,34.23Zm0,19.86a9,9,0,1,1,9-9A9,9,0,0,1,250.93,54.09Z"/>
        <path class="cls-1" d="M232,18.64l-.06-.19c-3.74-12.07-4.33-12.37-4.81-12.6a5.78,5.78,0,0,0-2.41-.22h-4.14c-.73,0-1.47,0-2.17,0l-1.92,0c-1.6,0-2,.11-2.31.37s-1,.85-.35,10.87a1,1,0,0,0,.6.83L225,22l.15.05a12.27,12.27,0,0,0,2.5.29,5.32,5.32,0,0,0,2-.34C231.05,21.4,232.58,20.5,232,18.64Zm-4.36,1.74a9.71,9.71,0,0,1-2-.22h0l-9.82-4a.17.17,0,0,1-.1-.13,78.92,78.92,0,0,1-.18-8.32.17.17,0,0,1,.15-.15h.77l1.92,0,2.2,0h4.15l1.35,0a.2.2,0,0,1,.13.09A118.32,118.32,0,0,1,230.09,19l.07.2,0,.11a.2.2,0,0,1,0,.13c-.06.1-.31.34-1.25.74A3.59,3.59,0,0,1,227.64,20.38Z"/>
        <path class="cls-1" d="M238.09,45.48c-.16-.84.1-6.75,3.13-8.84a1,1,0,0,0,.42-.82c0-.47-.12-.91-1-.93a.17.17,0,0,0-.1,0l-.27.28a2,2,0,0,1-.45.4c-.09,0-.27.12-3.32.12H233c-.71,0-1,.08-1,.5a.32.32,0,0,0,.13.29l.1.11a.21.21,0,0,1,0,.06,4.78,4.78,0,0,1-.46,4.36,3.55,3.55,0,0,1-3.3,1,1,1,0,0,0-1.06.83,1,1,0,0,0,.87,1c.32,0,.62,0,.85,0a5.05,5.05,0,0,0,4.14-1.79,4.51,4.51,0,0,0,1-4.34.13.13,0,0,1,0-.12.14.14,0,0,1,.12-.06l3.61-.1a.17.17,0,0,1,.13.25,15.25,15.25,0,0,0-2.14,8.2.3.3,0,0,1,0,.15c-.07.07-.1.08-.11.08H228a1,1,0,0,0,0,2h9c.44,0,.86-.88.95-1.33v0a.31.31,0,0,0,0-.09,2.25,2.25,0,0,0,.11-1.18Z"/>
        <path class="cls-1" d="M199.56,33.2a1,1,0,0,0,.85-.47,1,1,0,0,0-.35-1.32,2.44,2.44,0,0,1-.71-.69.15.15,0,0,1,0-.19,16.7,16.7,0,0,1,12.82-6.36,16.52,16.52,0,0,1,5.58,1c6.17,2.2,10.48,7.59,10.48,13.11a1,1,0,0,0,1.93,0c0-6.32-4.83-12.46-11.75-14.93A18,18,0,0,0,197.7,29.5a.93.93,0,0,0-.21.51l0,.08a1,1,0,0,0-.14.93,4.29,4.29,0,0,0,1.77,2.06A.94.94,0,0,0,199.56,33.2Z"/>
        <path class="cls-1" d="M212.56,40.26a1.25,1.25,0,1,0,1.25,1.25A1.25,1.25,0,0,0,212.56,40.26Z"/>
        <path class="cls-1" d="M250.91,44A1.14,1.14,0,1,0,252,45.16,1.14,1.14,0,0,0,250.91,44Z"/>
        <path class="cls-1" d="M176.93,29.72c.51-5.35,2.32-9.45,4.72-10.67a1.17,1.17,0,0,0,.5-1.58,1.16,1.16,0,0,0-1.57-.5c-2.71,1.39-4.75,5.06-5.63,10a1.13,1.13,0,0,0-.78-.28l-3,.06A1.16,1.16,0,0,0,170,28v.83a5.93,5.93,0,0,0-4,4.39l-6.49-.68L159,20.22a1.18,1.18,0,0,0-1-1.11l-2.58-.38c-.65-.89-2.29-2.31-6.1-2.4-.48,0-3.07,0-6.74.09a1.65,1.65,0,0,0,0-.32l-.19-10.28a1.17,1.17,0,0,0-2.34,0l.19,10.29a1.7,1.7,0,0,0,.06.31l-10.05.19L128.49,8h.45a1.13,1.13,0,0,0,.92-.48,1.19,1.19,0,0,0,.46-.94l-.1-5.14a1.17,1.17,0,0,0-.49-.93,1.16,1.16,0,0,0-.94-.45L105,.45a1.17,1.17,0,0,0-.93.49,1.14,1.14,0,0,0-.45.94l.11,5.6a1,1,0,0,0,.09.43l-1.73,11a.67.67,0,0,0,0,.2l.29,15.52a1.17,1.17,0,1,0,2.33,0l-.29-15.42,1.74-11a1.18,1.18,0,0,0-.09-.65v0l-.08-4.67,22-.41L128,5.63,107.87,6a1.18,1.18,0,0,0-1.15,1.19A1.22,1.22,0,0,0,107,8a1.23,1.23,0,0,0-.07.39l.19,9.93a1.21,1.21,0,0,0,.36.82,1.11,1.11,0,0,0,.84.32c.39,0,39-.81,40.93-.77,3.58.09,4.34,1.55,4.34,1.55a1,1,0,0,0,.93.75l2.17.32.52,12.65a1.27,1.27,0,0,0,1.19,1.22h0c.19,0,.36-.16.52-.25l7,.69a5.9,5.9,0,0,0,4.22,4.55v.93a1.16,1.16,0,0,0,1.19,1.14l3.51-.06a1.23,1.23,0,0,0,.78-.33A16.6,16.6,0,0,0,181,50.4a1.13,1.13,0,0,0,.74.24,1.15,1.15,0,0,0,.9-.45,1.18,1.18,0,0,0-.21-1.64C177.77,44.93,176.32,36.25,176.93,29.72ZM109.48,17.07l-.17-8.76,5.61-.1.16,8.75Zm7.94-.16-.16-8.75L126.11,8l1.83,8.7ZM168.23,34.5a3.58,3.58,0,0,1,1.82-3.18l.12,6.28A3.56,3.56,0,0,1,168.23,34.5Zm6.66,5.3-2.34.05-.2-10.75,1.87,0a1.34,1.34,0,0,0,.45-.1c0,.18,0,.35-.06.53a34.31,34.31,0,0,0,.6,10.35A1.19,1.19,0,0,0,174.89,39.8Z"/>
        <path class="cls-1" d="M159.89,47.53a1.17,1.17,0,0,0-1.56.56,8,8,0,0,1-1.23,1.84,1.18,1.18,0,0,0,.1,1.65,1.17,1.17,0,0,0,.8.29,1.13,1.13,0,0,0,.85-.39,10.58,10.58,0,0,0,1.59-2.39A1.18,1.18,0,0,0,159.89,47.53Z"/>
        <path class="cls-1" d="M159.71,41.43a1.17,1.17,0,0,0-.86,1.41,7.86,7.86,0,0,1,.23,1.76c0,.23,0,.46,0,.69a1.17,1.17,0,0,0,1.09,1.24h.1a1.18,1.18,0,0,0,1.15-1.08c0-.3,0-.6,0-.92a10.6,10.6,0,0,0-.3-2.25A1.16,1.16,0,0,0,159.71,41.43Z"/>
        <path class="cls-1" d="M157.74,40.35a1.16,1.16,0,0,0,1,.51,1.12,1.12,0,0,0,.63-.2,1.17,1.17,0,0,0,.31-1.62,10.57,10.57,0,0,0-1.81-2,1.16,1.16,0,0,0-1.65.12,1.18,1.18,0,0,0,.12,1.65A8.09,8.09,0,0,1,157.74,40.35Z"/>
        <path class="cls-1" d="M154.64,51.92a8.6,8.6,0,0,1-3.55,1l-41.19.77a8.25,8.25,0,0,1-8.3-8,7.87,7.87,0,0,1,8-7.89L150.79,37a8.4,8.4,0,0,1,2.9.41,1.17,1.17,0,0,0,.77-2.21,10.64,10.64,0,0,0-3.71-.54l-41.2.77a10.19,10.19,0,0,0-10.29,10.3A10.49,10.49,0,0,0,109.94,56l41.19-.78a10.73,10.73,0,0,0,4.55-1.2,1.17,1.17,0,0,0-1-2.09Z"/>
        <path class="cls-1" d="M151,38.47h-.37a6.7,6.7,0,0,0-1.19,0l-38.07.81h0l-.13,0a5.74,5.74,0,0,0-.92,0,6.16,6.16,0,1,0,5.77,8.59l29.45-.63A6.16,6.16,0,1,0,151,38.47Zm.18,10a3.83,3.83,0,0,1-3.68-2.61,1.2,1.2,0,0,0-1.18-1.05h0c-11.13,0-28.58.63-30.37.67a1.13,1.13,0,0,0-.41-.16,1.17,1.17,0,0,0-1.39.9,3.82,3.82,0,1,1-3.81-4.63,5.3,5.3,0,0,1,.57,0c.07,0,.14-.08.2-.08s.2-.06.31-.06h0L151,40.8h0a3.83,3.83,0,0,1,.14,7.65Z"/>
        <path class="cls-1" d="M109.71,44.19a1.15,1.15,0,0,0-.32.83,1.14,1.14,0,0,0,.35.82,1.19,1.19,0,0,0,.84.33,1.23,1.23,0,0,0,.82-.36,1.19,1.19,0,0,0,.32-.83,1.15,1.15,0,0,0-.36-.82A1.21,1.21,0,0,0,109.71,44.19Z"/>
        <path class="cls-1" d="M151.26,43.07a1.17,1.17,0,0,0-1.13,1.19v0a1.22,1.22,0,0,0,1.21,1.16h.08a1.22,1.22,0,0,0,1.18-1.19v0a1.23,1.23,0,0,0-.2-.52A1.17,1.17,0,0,0,151.26,43.07Z"/>
        <path class="cls-1" d="M79.33,43.27a1,1,0,0,0-.63.25,9.46,9.46,0,0,0-.12-1.07.88.88,0,0,0,.42.11l.23,0a.94.94,0,0,0,.68-1.14c0-.13-.07-.26-.11-.39a.94.94,0,0,0-1.17-.63.91.91,0,0,0-.51.39,10.25,10.25,0,0,0-.41-1h.14a.93.93,0,0,0,.8-1.42l-.21-.34a.94.94,0,0,0-1.3-.28.92.92,0,0,0-.37.5c-.21-.28-.43-.54-.66-.8a.93.93,0,0,0,.55-.27,1,1,0,0,0,0-1.33l-.31-.27a.94.94,0,0,0-1.32.1.9.9,0,0,0-.21.56c-.27-.2-.55-.39-.83-.56a1,1,0,0,0,.42-.41A.94.94,0,0,0,73.93,34l-.36-.18a1,1,0,0,0-1.25.47,1,1,0,0,0,0,.58c-.31-.11-.63-.21-1-.3a.92.92,0,0,0,.28-.5A.94.94,0,0,0,70.85,33L70.44,33a.93.93,0,0,0-1,.8.9.9,0,0,0,.11.56c-.21,0-.43,0-.65,0l-.35,0a.92.92,0,0,0,.14-.56.93.93,0,0,0-1-.83L67.2,33A.93.93,0,0,0,66.41,34a1,1,0,0,0,.26.51c-.32.07-.64.17-1,.27a.89.89,0,0,0,0-.58.94.94,0,0,0-1.23-.5l-.38.16a.93.93,0,0,0-.45,1.24.82.82,0,0,0,.41.43c-.3.17-.58.35-.86.54a.87.87,0,0,0-.19-.57,1,1,0,0,0-1.32-.14l-.31.27A.93.93,0,0,0,61.27,37a.92.92,0,0,0,.53.28l-.09.08q-.32.33-.6.69a.88.88,0,0,0-.34-.49.94.94,0,0,0-1.31.23c-.07.12-.15.23-.22.34A.94.94,0,0,0,60,39.55h.1a7.9,7.9,0,0,0-.44.93.87.87,0,0,0-.49-.39.94.94,0,0,0-1.19.59l-.12.39a.94.94,0,0,0,.64,1.16.82.82,0,0,0,.26,0,1,1,0,0,0,.39-.09,9.17,9.17,0,0,0-.16,1,.93.93,0,0,0-1.57.65c0,.13,0,.25,0,.38v0a.93.93,0,0,0,.94.93.88.88,0,0,0,.63-.26,9.89,9.89,0,0,0,.15,1.11,1,1,0,0,0-.69-.1.94.94,0,0,0-.67,1.15c0,.13.07.26.11.39a.93.93,0,0,0,.9.67.82.82,0,0,0,.26,0,.91.91,0,0,0,.56-.45c.14.36.29.7.46,1a.93.93,0,0,0-.72.1.94.94,0,0,0-.32,1.29l.21.34a.93.93,0,0,0,.79.43,1,1,0,0,0,.51-.15.92.92,0,0,0,.41-.63,9.5,9.5,0,0,0,.77.91.93.93,0,0,0-.65,1.62l.3.27a1,1,0,0,0,.62.23A.92.92,0,0,0,62.92,52a10.41,10.41,0,0,0,1,.69.91.91,0,0,0-.62.48.94.94,0,0,0,.42,1.26l.37.17a.89.89,0,0,0,.39.09,1,1,0,0,0,.85-.55.93.93,0,0,0,0-.8,9.47,9.47,0,0,0,1.21.38.92.92,0,0,0,.28,1.73l.41.06h.13a.94.94,0,0,0,.93-.81.93.93,0,0,0-.25-.75c.26,0,.53,0,.79,0s.32,0,.48,0a.93.93,0,0,0,.65,1.6h.11l.4-.05a.94.94,0,0,0,.8-1.06.9.9,0,0,0-.44-.65,11.81,11.81,0,0,0,1.2-.34.91.91,0,0,0,0,.79.91.91,0,0,0,1.22.5l.37-.16a.92.92,0,0,0-.13-1.74,11.42,11.42,0,0,0,1-.65.92.92,0,0,0,.18.76,1,1,0,0,0,.73.34.92.92,0,0,0,.59-.2l.31-.27a.93.93,0,0,0,.1-1.32.91.91,0,0,0-.7-.31,9.59,9.59,0,0,0,.81-.88.89.89,0,0,0,.39.63.88.88,0,0,0,.53.17.93.93,0,0,0,.77-.4l.23-.34a1,1,0,0,0-.28-1.3,1,1,0,0,0-.72-.12,9.48,9.48,0,0,0,.5-1,1,1,0,0,0,.54.46,1,1,0,0,0,.3,0,.94.94,0,0,0,.89-.65l.12-.38a.94.94,0,0,0-.64-1.17,1,1,0,0,0-.69.07c.08-.35.14-.71.19-1.08a.91.91,0,0,0,.62.27h0a.93.93,0,0,0,.94-.9c0-.14,0-.27,0-.41v0A1,1,0,0,0,79.33,43.27ZM68.85,52.16a8,8,0,0,1-5.78-13.53,7.81,7.81,0,0,1,2.08-1.57,8,8,0,1,1,3.7,15.1Z"/>
        <path class="cls-1" d="M31.85,43.27a.92.92,0,0,0-.8.48,10.32,10.32,0,0,0-.19-1.48.9.9,0,0,0,.66.29.85.85,0,0,0,.23,0,.93.93,0,0,0,.68-1.14c0-.13-.07-.26-.11-.39a.94.94,0,0,0-1.17-.63.93.93,0,0,0-.64.71,9.59,9.59,0,0,0-.61-1.39,1,1,0,0,0,.47.12.93.93,0,0,0,.8-1.42L31,38.05a.93.93,0,0,0-1.71.61,9.64,9.64,0,0,0-1-1.2,1,1,0,0,0,.24,0,.93.93,0,0,0,.69-.3,1,1,0,0,0-.05-1.33l-.3-.27a.93.93,0,0,0-1.48,1.06,9.13,9.13,0,0,0-1.27-.86A.93.93,0,0,0,26.46,34l-.37-.18a.94.94,0,0,0-1.24.47.91.91,0,0,0,.11.94,8.89,8.89,0,0,0-1.41-.45,1,1,0,0,0,.58-.71A.94.94,0,0,0,23.37,33L23,33a.94.94,0,0,0-1.06.8.9.9,0,0,0,.33.83c-.32,0-.65,0-1,0l-.45,0a.89.89,0,0,0,.35-.81.93.93,0,0,0-1-.83l-.41.05a.93.93,0,0,0-.29,1.75,8.16,8.16,0,0,0-1.29.34A.92.92,0,0,0,17,33.72l-.37.16a.94.94,0,0,0,.14,1.76,9.32,9.32,0,0,0-1.05.62.92.92,0,0,0-.19-.74,1,1,0,0,0-1.32-.14l-.31.27a.93.93,0,0,0,.58,1.63,8.82,8.82,0,0,0-.78.84.94.94,0,0,0-.39-.59.93.93,0,0,0-1.3.23l-.23.34A1,1,0,0,0,12,39.4a1,1,0,0,0,.51.15l.17,0a8,8,0,0,0-.49,1,.89.89,0,0,0-.51-.42.92.92,0,0,0-1.18.59c0,.13-.09.26-.12.39a.93.93,0,0,0,.64,1.16.75.75,0,0,0,.26,0,.92.92,0,0,0,.37-.09c-.07.34-.13.68-.17,1a1,1,0,0,0-.58-.24.93.93,0,0,0-1,.91c0,.13,0,.25,0,.38v0a.92.92,0,0,0,1.52.71,8.94,8.94,0,0,0,.12,1,.92.92,0,0,0-1.28,1.08c0,.13.07.26.11.39a.93.93,0,0,0,.9.67.84.84,0,0,0,.27,0,.88.88,0,0,0,.47-.35,9.64,9.64,0,0,0,.4.93.92.92,0,0,0-.9,1.4c.07.11.14.23.22.34a.92.92,0,0,0,1.65-.19,9.68,9.68,0,0,0,.64.77,1,1,0,0,0-.52.27,1,1,0,0,0,0,1.33l.31.27a.93.93,0,0,0,1.32-.1.88.88,0,0,0,.21-.55,9.43,9.43,0,0,0,.84.56,1,1,0,0,0-.43.41.94.94,0,0,0,.42,1.26l.37.17a.92.92,0,0,0,.39.09,1,1,0,0,0,.85-.55.92.92,0,0,0,0-.61,9.32,9.32,0,0,0,1,.3,1,1,0,0,0-.31.53.94.94,0,0,0,.76,1.09l.4.06h.13a.93.93,0,0,0,.79-1.43l.57,0,.49,0a.87.87,0,0,0-.17.63.93.93,0,0,0,.93.84h.1l.4-.05a.94.94,0,0,0,.8-1.06,1,1,0,0,0-.34-.59,7.46,7.46,0,0,0,1.05-.31.94.94,0,0,0,.88,1.28.85.85,0,0,0,.35-.08l.38-.16a.93.93,0,0,0,.46-1.24.91.91,0,0,0-.53-.49,9,9,0,0,0,1-.63,1,1,0,0,0,.19.73,1,1,0,0,0,.73.34.92.92,0,0,0,.59-.2l.31-.27a.92.92,0,0,0-.61-1.63,8.31,8.31,0,0,0,.82-1,.92.92,0,0,0,.39.71.88.88,0,0,0,.53.17,1,1,0,0,0,.78-.4l.22-.34a.94.94,0,0,0-.28-1.3,1,1,0,0,0-.82-.08,10.37,10.37,0,0,0,.56-1.22.91.91,0,0,0,.58.63,1,1,0,0,0,.3,0,.94.94,0,0,0,.89-.65l.12-.38a.94.94,0,0,0-.63-1.17.91.91,0,0,0-.86.2,9.52,9.52,0,0,0,.2-1.42.93.93,0,0,0,.77.48h0a.92.92,0,0,0,.93-.9c0-.14,0-.27,0-.41v0A1,1,0,0,0,31.85,43.27Zm-10.59,9a7.95,7.95,0,1,1,7.94-7.94A8,8,0,0,1,21.26,52.29Z"/>
        <path class="cls-1" d="M49.81,33.62a.91.91,0,0,0,.48-.13.93.93,0,0,0,.43-.59l5-20.95h7.14a.94.94,0,0,0,.94-.94V6.88A.94.94,0,0,0,62.85,6H51.41a.93.93,0,0,0-.64.24L44,12.42.94,12.51a.94.94,0,0,0-.94.94V18.7a1,1,0,0,0,.68.91l48.87,14A.78.78,0,0,0,49.81,33.62ZM1.87,18V14.39l42.5-.09a1,1,0,0,0,.64-.25l6.76-6.23H61.91v2.25H55a.94.94,0,0,0-.91.72L49.13,31.51Z"/>
        <path class="cls-1" d="M85.91,36.09l-.84-.35c0-.09,0-.21,0-.33a.94.94,0,0,0-1.87.12c0,.6.06.93.06.93a.93.93,0,0,0,.58.79l.66.28a6.58,6.58,0,0,1-.83,2.19H81.8a.94.94,0,1,0,0,1.87h2.13a1.12,1.12,0,0,0,.31-.05c1.38-.49,2-3,2.24-4.43A.94.94,0,0,0,85.91,36.09Z"/>
        <path class="cls-1" d="M57.77,14.26,70,14l1.85.93,9.13,11.59a.87.87,0,0,0,.39.29l1.33.53c.09,1.08.27,3.46.4,5.56a.94.94,0,1,0,1.88-.12c-.19-2.82-.45-6.13-.45-6.17a.94.94,0,0,0-.59-.79l-1.64-.66-9.1-11.56a1,1,0,0,0-.32-.26l-2.25-1.12a.86.86,0,0,0-.44-.1l-12.76.25a.91.91,0,0,0-.57.21,7.47,7.47,0,0,0-1.6,1.76c-.14.25-.51.91-.62,22.43L2.6,22.2a.94.94,0,0,0-1,.41,1,1,0,0,0,.11,1.13l10.4,11.42a1,1,0,0,0,1.33.06.93.93,0,0,0,.06-1.32l-8.2-9,50,14a.77.77,0,0,0,.25,0,1,1,0,0,0,.91-.69,1,1,0,0,0,0-.38s0,0,0-.06c0-8,.19-21.07.44-22.64A5.05,5.05,0,0,1,57.77,14.26Z"/>
        <path class="cls-1" d="M55.91,39.72H34.15a.94.94,0,1,0,0,1.87H55.91a.94.94,0,1,0,0-1.87Z"/>
        <path class="cls-1" d="M69.6,15.33H59.29a.92.92,0,0,0-.94.94V24a.9.9,0,0,0,.29.67.93.93,0,0,0,.65.27h0l15.45-.37a1,1,0,0,0,.81-.51.92.92,0,0,0-.07-1l-5.12-7.4A1,1,0,0,0,69.6,15.33Zm-9.37,7.74V17.2h8.88L73,22.76Z"/>
        <path class="cls-1" d="M21.29,39.53a4.79,4.79,0,1,0,4.79,4.78A4.79,4.79,0,0,0,21.29,39.53Zm0,7.69a2.91,2.91,0,1,1,2.91-2.91A2.9,2.9,0,0,1,21.29,47.22Z"/>
        <path class="cls-1" d="M69,39.53a4.79,4.79,0,1,0,4.78,4.78A4.79,4.79,0,0,0,69,39.53Zm0,7.69a2.91,2.91,0,1,1,2.91-2.91A2.91,2.91,0,0,1,69,47.22Z"/>
        <path class="cls-1" d="M43,17.24a.93.93,0,0,0-.93.93v7.51a.94.94,0,1,0,1.87,0V18.17A.94.94,0,0,0,43,17.24Z"/>
        <path class="cls-1" d="M32.83,17.24a.94.94,0,0,0-.94.93V23.8a.94.94,0,0,0,1.88,0V18.17A.94.94,0,0,0,32.83,17.24Z"/>
        <path class="cls-1" d="M22.7,16.48a.94.94,0,0,0-.94.94v3.76a.94.94,0,0,0,1.88,0V17.42A.94.94,0,0,0,22.7,16.48Z"/>
        <path class="cls-1" d="M292.45,41a4.68,4.68,0,1,0,4.67,4.68A4.68,4.68,0,0,0,292.45,41Zm0,7.28a2.61,2.61,0,1,1,2.61-2.6A2.61,2.61,0,0,1,292.45,48.25Z"/>
        <path class="cls-1" d="M327.09,41.41a4.68,4.68,0,1,0,4.67,4.68A4.68,4.68,0,0,0,327.09,41.41Zm0,7.28a2.61,2.61,0,1,1,2.61-2.6A2.61,2.61,0,0,1,327.09,48.69Z"/>
        <path class="cls-1" d="M359.57,45.05l-8.31-.38-13-33.9a1,1,0,1,0-1.93.74l10,26h-2.94a1.16,1.16,0,0,0-.41.09v-.09a1,1,0,0,0-2.07,0v7c-.86,0-2.29.1-4.13.11a9.93,9.93,0,0,0-5-7.28,1,1,0,0,0,0-.29c-1.92-18.77-9-27.69-14.62-31.88a26.37,26.37,0,0,0-2.49-1.63,9.53,9.53,0,0,1,1.21.48l.08,0C329.4,9.46,334.71,31,335.82,36.19l-1.09,0a1,1,0,1,0,0,2.06c1.48,0,2.36-.08,2.4-.08a1.05,1.05,0,0,0,.73-.4,1,1,0,0,0,.2-.81c-.19-1.15-5-28.26-21.34-34.76C313.66.72,309.17.47,305.1.6H305c-2.46.08-4.76.31-6.51.47-.95.09-1.7.17-2.13.18-2.84.09-4.67,1.85-4.67,4.48V26.8h-4.1C285,26.8,283,28.16,283,30V41.27a1,1,0,0,0,.17.53,9.91,9.91,0,1,0,19,3.87,9.82,9.82,0,0,0-2.08-6.05h12.43a1,1,0,0,0,.61-.22h6.48a9.9,9.9,0,1,0,17.17,7.35c3.17,0,5.09-.16,5.17-.17a1,1,0,0,0,1-1V44.08a1.16,1.16,0,0,0,.41.09h4.55a1,1,0,0,0,.78-.38l.86,2.25a1,1,0,0,0,.92.66l9,.42h0a1,1,0,0,0,.05-2.07Zm-37.93-7.28a1,1,0,0,0-.81-.42h-1.28c1.69-1.93,4.05-6.24.34-13.18a19.06,19.06,0,0,1,2.19-1.77c1.73,1.4,7,6.32,6.67,14A9.51,9.51,0,0,0,327,36.2,9.81,9.81,0,0,0,321.64,37.77Zm-27.86-32c0-.87.35-2.34,2.66-2.41.5,0,1.28-.09,2.27-.19,1.64-.16,4-.38,6.52-.46A20.79,20.79,0,0,1,316,7c5.14,3.88,9,10,11.35,18a20.91,20.91,0,0,0-4.57-4.7,1,1,0,0,0-.46-.22.69.69,0,0,0-.2,0,1,1,0,0,0-.17,0,.91.91,0,0,0-.46.2,20.71,20.71,0,0,0-3.64,3,1,1,0,0,0-.15,1.24c4.92,8.5-.36,12.15-.58,12.3a1,1,0,0,0-.4.54h-3.11V31.56a1,1,0,0,0-1-1h-9.33l-.69-1.34L300.05,22a1,1,0,0,0-1.32-.64,1,1,0,0,0-.63,1.32l1.79,5.13-6.12.11s0,0,0-.06Zm4.43,31.56h0a1,1,0,0,0-.44.11,9.74,9.74,0,0,0-3.93-1.51l.07-5.92,6.67-.12.09.16.66,1.89a1,1,0,0,0,1,.69h9.26v4.74ZM285.1,30c0-.38.95-1.09,2.51-1.09h4.26s0,0,0,.07l-.11,6.85a9.87,9.87,0,0,0-6.65,3.12Zm7.23,23.56a7.85,7.85,0,0,1,0-15.69l.13.07,4.71,1.59a7.84,7.84,0,0,1-4.81,14ZM327,54a7.85,7.85,0,1,1,7.84-7.85A7.86,7.86,0,0,1,327,54Zm21-11.86h-4.55a1,1,0,0,0-.41.09V39.53a1,1,0,0,0,.41.09h3.31a1,1,0,0,0,.39-.08l1,2.59A.7.7,0,0,0,347.93,42.1Z"/>
        <path class="cls-1" d="M315.31,44.57h0l-11.11,0a1,1,0,0,0,0,2.07h0l11.11,0a1,1,0,0,0,0-2.07Z"/>
        <path class="cls-1" d="M314.23,24.28a1.05,1.05,0,0,0,.68-.26l6.92-6.09a1,1,0,0,0-1.36-1.56l-6.93,6.1a1,1,0,0,0,.69,1.81Z"/>
      </g>
    </g>
  </g>
</svg>
