<svg version="1.1" id="Isolation_Mode" xmlns="http://www.w3.org/2000/svg" x="0px" y="0px" viewBox="0 0 58 38.6" fill="#FFF" width="58" height="39">

<path d="M29,2.5c-0.4,0-0.7,0-1.1,0.1c-4.7,0.5-8.2,4.5-8.2,9.3c0,5.1,4.2,9.3,9.3,9.3c5.1,0,9.3-4.2,9.3-9.3
	C38.3,6.7,34.2,2.5,29,2.5z M29,18.6c-3.7,0-6.8-3-6.8-6.8c0-3.4,2.6-6.3,6-6.7c0.3,0,0.5,0,0.8,0c3.7,0,6.8,3,6.8,6.8
	C35.8,15.5,32.8,18.6,29,18.6z M29.9,28.8h-1.6c-1.7,0-3,1.3-3,3v5.6c0,0.7,0.6,1.3,1.3,1.3c0.7,0,1.3-0.6,1.3-1.3v-5.6
	c0-0.3,0.2-0.5,0.5-0.5h1.6c0.3,0,0.5,0.2,0.5,0.5v5.6c0,0.7,0.6,1.3,1.3,1.3c0.7,0,1.3-0.6,1.3-1.3v-5.6
	C32.9,30.1,31.5,28.8,29.9,28.8z M36.6,22.8H21.5c-2.6,0-4.8,2.1-4.8,4.8v9.8c0,0.7,0.6,1.3,1.3,1.3c0.7,0,1.3-0.6,1.3-1.3v-9.8
	c0-1.2,1-2.2,2.2-2.2h3.8v0c0,1.7,1.3,3,3,3h1.6c1.7,0,3-1.3,3-3v0h3.8c1.2,0,2.2,1,2.2,2.2v9.8c0,0.7,0.6,1.3,1.3,1.3
	c0.7,0,1.3-0.6,1.3-1.3v-9.8C41.4,24.9,39.3,22.8,36.6,22.8z M30.4,25.3c0,0.3-0.2,0.5-0.5,0.5h-1.6c-0.3,0-0.5-0.2-0.5-0.5v0
	L30.4,25.3L30.4,25.3z M26.6,6.3c-0.7,0.2-1.3,0.6-1.8,1.1c-0.5,0.5-0.4,1.3,0.1,1.8c0.2,0.2,0.5,0.3,0.8,0.3c0.3,0,0.7-0.1,0.9-0.4
	c0.2-0.2,0.4-0.3,0.7-0.4c0.7-0.2,1-0.9,0.8-1.6C28,6.5,27.2,6.1,26.6,6.3z M46.6,0.1c-4,0.5-7,3.8-7,7.9c0,4.4,3.6,7.9,7.9,7.9
	c4.4,0,7.9-3.6,7.9-7.9c0-4.4-3.6-7.9-7.9-7.9C47.2,0,46.9,0,46.6,0.1z M52.9,7.9c0,3-2.4,5.4-5.4,5.4c-3,0-5.4-2.4-5.4-5.4
	c0-2.7,2.1-5.1,4.8-5.4c0.2,0,0.4,0,0.6,0C50.5,2.5,52.9,5,52.9,7.9z M48.2,22.8h-1.3c-1.5,0-2.7,1.2-2.7,2.7v4.1
	c0,0.7,0.6,1.3,1.3,1.3c0.7,0,1.3-0.6,1.3-1.3v-4.1c0-0.1,0.1-0.2,0.2-0.2h1.3c0.1,0,0.2,0.1,0.2,0.2v4.1c0,0.7,0.6,1.3,1.3,1.3
	c0.7,0,1.3-0.6,1.3-1.3v-4.1C50.9,24.1,49.7,22.8,48.2,22.8z M53.8,16.8H41.3c-2.3,0-4.2,1.9-4.2,4.2c0,0.7,0.6,1.3,1.3,1.3
	s1.3-0.6,1.3-1.3c0-0.9,0.7-1.6,1.6-1.6h2.9v0.1c0,1.7,1.2,3,2.7,3h1.3c1.5,0,2.7-1.4,2.7-3v-0.1h2.9c0.9,0,1.6,0.7,1.6,1.6v7.6
	c0,0.7,0.6,1.3,1.3,1.3c0.7,0,1.3-0.6,1.3-1.3V21C58,18.7,56.1,16.8,53.8,16.8z M48.4,19.4c0,0.3-0.1,0.5-0.2,0.5h-1.3
	c-0.1,0-0.2-0.2-0.2-0.5v-0.1L48.4,19.4L48.4,19.4z M45.6,3.4c-0.6,0.2-1.1,0.5-1.5,1c-0.5,0.5-0.4,1.3,0.1,1.8
	c0.2,0.2,0.5,0.3,0.8,0.3c0.3,0,0.7-0.1,0.9-0.4c0.1-0.1,0.3-0.2,0.5-0.3c0.7-0.2,1-0.9,0.8-1.6C47,3.5,46.3,3.2,45.6,3.4z
	 M10.4,15.9c4.4,0,7.9-3.6,7.9-7.9c0-4.4-3.6-7.9-7.9-7.9c-0.3,0-0.6,0-0.9,0.1c-4,0.5-7,3.8-7,7.9C2.4,12.3,6,15.9,10.4,15.9z
	 M9.7,2.6c0.2,0,0.4,0,0.6,0c3,0,5.4,2.4,5.4,5.4c0,3-2.4,5.4-5.4,5.4c-3,0-5.4-2.4-5.4-5.4C5,5.2,7,2.9,9.7,2.6z M18.3,21
	c0,0.7,0.6,1.3,1.3,1.3c0.7,0,1.3-0.6,1.3-1.3c0-2.3-1.9-4.2-4.2-4.2H4.2C1.9,16.8,0,18.7,0,21v7.6c0,0.7,0.6,1.3,1.3,1.3
	c0.7,0,1.3-0.6,1.3-1.3V21c0-0.9,0.7-1.6,1.6-1.6h2.9v0.1c0,1.7,1.2,3,2.7,3h1.3c1.5,0,2.7-1.4,2.7-3v-0.1h2.9
	C17.6,19.3,18.3,20.1,18.3,21z M11.3,19.4c0,0.3-0.1,0.5-0.2,0.5H9.8c-0.1,0-0.2-0.2-0.2-0.5v-0.1L11.3,19.4L11.3,19.4z M11.1,22.8
	H9.8c-1.5,0-2.7,1.2-2.7,2.7v4.1c0,0.7,0.6,1.3,1.3,1.3c0.7,0,1.3-0.6,1.3-1.3v-4.1c0-0.1,0.1-0.2,0.2-0.2h1.3
	c0.1,0,0.2,0.1,0.2,0.2v4.1c0,0.7,0.6,1.3,1.3,1.3c0.7,0,1.3-0.6,1.3-1.3v-4.1C13.8,24.1,12.6,22.8,11.1,22.8z M7,6.2
	c0.2,0.2,0.5,0.3,0.8,0.3c0.3,0,0.7-0.1,0.9-0.4C9,6,9.1,5.9,9.3,5.8c0.7-0.2,1-0.9,0.8-1.6c-0.2-0.7-0.9-1-1.6-0.8
	c-0.6,0.2-1.1,0.5-1.5,1C6.5,4.9,6.5,5.7,7,6.2z"/>
</svg>