<svg xmlns="http://www.w3.org/2000/svg" viewBox="0 0 144.29 68.2">
  <defs>
    <style>
      .cls-1 {
        fill: none;
        stroke: #fff;
        stroke-miterlimit: 10;
        stroke-width: 1.5px;
      }
    </style>
  </defs>
  <title>fact-3</title>
  <g id="Слой_2" data-name="Слой 2">
    <g id="icons">
      <g>
        <ellipse class="cls-1" cx="17.75" cy="23" rx="12" ry="3"/>
        <path class="cls-1" d="M12.75,5.42c-1.83.36-3,.92-3,1.58v6c0,1.16,3.58,2,8,2s8-.84,8-2V7c0-.66-1.17-1.22-3-1.58"/>
        <path class="cls-1" d="M12.75,0V7c0,1.16,2.24,2,5,2s5-.84,5-2V0"/>
        <path class="cls-1" d="M29.75,23V42c0,1.66-5.37,3-12,3s-12-1.34-12-3V23"/>
        <polyline class="cls-1" points="9.75 10 6.75 10 0.75 16 0.75 26 5.75 31"/>
        <polyline class="cls-1" points="25.75 10 28.75 10 34.75 16 34.75 26 29.75 31"/>
        <line class="cls-1" x1="17.75" y1="12" x2="17.75" y2="33"/>
        <line class="cls-1" x1="15.75" y1="33" x2="19.75" y2="33"/>
      </g>
      <g>
        <path class="cls-1" d="M46.4,19.26l1.31,3.17,2.45-1a7.35,7.35,0,0,0,1.77,1.75l-1,2.46,3.17,1.31,1-2.45a7.7,7.7,0,0,0,2.49,0l1,2.45,3.17-1.31-1-2.45a7.49,7.49,0,0,0,1.75-1.76l2.46,1,1.31-3.17-2.45-1a7.7,7.7,0,0,0,0-2.49l2.45-1L65,11.57l-2.45,1a7.35,7.35,0,0,0-1.77-1.75l1-2.46L58.6,7.06l-1,2.45a7.7,7.7,0,0,0-2.49,0l-1-2.45L50.91,8.37l1,2.45a7.74,7.74,0,0,0-1.76,1.76l-2.45-1L46.4,14.74l2.45,1a7.7,7.7,0,0,0,0,2.49Z"/>
        <path class="cls-1" d="M53.26,18.28a3.34,3.34,0,1,1,4.36,1.8A3.34,3.34,0,0,1,53.26,18.28Z"/>
      </g>
      <g>
        <path class="cls-1" d="M86.63,53.6a13.28,13.28,0,0,0-.2-2.43l3.25-1.63-2.34-5.67L83.89,45a14.76,14.76,0,0,0-3.42-3.41l1.15-3.45L76,35.81l-1.63,3.26a14.5,14.5,0,0,0-4.83,0l-1.63-3.25-5.66,2.35,1.15,3.45A14.57,14.57,0,0,0,59.94,45l-3.45-1.15-2.34,5.67,3.25,1.63a15.13,15.13,0,0,0-.2,2.43"/>
        <path class="cls-1" d="M66,53.6a5.92,5.92,0,1,1,11.83,0"/>
      </g>
      <g>
        <path class="cls-1" d="M134.66,53.52a5.05,5.05,0,0,0-10.1,0"/>
        <g>
          <line class="cls-1" x1="123.31" y1="36.7" x2="129.36" y2="48.7"/>
          <line class="cls-1" x1="108.08" y1="40.42" x2="113.21" y2="48.7"/>
          <ellipse class="cls-1" cx="115.23" cy="36.7" rx="8.08" ry="8"/>
          <path class="cls-1" d="M118.26,36.7a3,3,0,1,1-3-3A3,3,0,0,1,118.26,36.7Z"/>
          <ellipse class="cls-1" cx="98.07" cy="11.7" rx="5.05" ry="5"/>
          <path class="cls-1" d="M131.39,11.7a7.07,7.07,0,1,1-7.07-7A7,7,0,0,1,131.39,11.7Z"/>
          <polyline class="cls-1" points="102.11 8.7 107.16 8.7 108.17 7.7 118.26 7.7"/>
          <polyline class="cls-1" points="102.11 13.7 107.16 13.7 108.17 14.7 117.25 14.7"/>
          <line class="cls-1" x1="130.89" y1="14.27" x2="123" y2="34.49"/>
          <line class="cls-1" x1="118.26" y1="15.7" x2="108.53" y2="32.24"/>
          <polyline class="cls-1" points="101.1 15.7 101.1 18.7 102.11 19.7 102.11 25.7 101.1 26.7 101.1 28.7 99.08 30.7 97.06 30.7 95.04 28.7 95.04 26.7 94.03 25.7 94.03 19.7 95.04 18.7 95.04 15.7"/>
          <line class="cls-1" x1="98.07" y1="30.7" x2="98.07" y2="37.7"/>
        </g>
      </g>
      <line class="cls-1" x1="19.64" y1="60.74" x2="16.29" y2="60.74"/>
      <line class="cls-1" x1="11.04" y1="60.74" x2="7.68" y2="60.74"/>
      <line class="cls-1" x1="21.11" y1="60.74" x2="17.75" y2="60.74"/>
      <line class="cls-1" x1="31.17" y1="60.74" x2="27.82" y2="60.74"/>
      <line class="cls-1" x1="41.24" y1="60.74" x2="37.88" y2="60.74"/>
      <line class="cls-1" x1="51.3" y1="60.74" x2="47.95" y2="60.74"/>
      <line class="cls-1" x1="61.37" y1="60.74" x2="58.01" y2="60.74"/>
      <line class="cls-1" x1="71.91" y1="60.74" x2="68.56" y2="60.74"/>
      <line class="cls-1" x1="88.96" y1="60.74" x2="85.6" y2="60.74"/>
      <line class="cls-1" x1="80.36" y1="60.74" x2="77" y2="60.74"/>
      <line class="cls-1" x1="90.42" y1="60.74" x2="87.07" y2="60.74"/>
      <line class="cls-1" x1="100.49" y1="60.74" x2="97.13" y2="60.74"/>
      <line class="cls-1" x1="110.55" y1="60.74" x2="107.2" y2="60.74"/>
      <line class="cls-1" x1="120.62" y1="60.74" x2="117.26" y2="60.74"/>
      <line class="cls-1" x1="130.68" y1="60.74" x2="127.33" y2="60.74"/>
      <path class="cls-1" d="M143.54,60.74A6.7,6.7,0,0,0,136.83,54H7.68A6.71,6.71,0,0,0,1,60.74H1a6.72,6.72,0,0,0,6.71,6.71H136.83a6.71,6.71,0,0,0,6.71-6.71Z"/>
    </g>
  </g>
</svg>
