<svg xmlns="http://www.w3.org/2000/svg" viewBox="0 0 115.11 58.63">
  <defs>
    <style>
      .cls-1, .cls-2 {
        fill: none;
        stroke: #fff;
        stroke-width: 2px;
      }

      .cls-1 {
        stroke-linecap: round;
        stroke-linejoin: round;
      }

      .cls-2 {
        stroke-miterlimit: 10;
      }
    </style>
  </defs>
  <title>fact-1</title>
  <g id="Слой_2" data-name="Слой 2">
    <g id="Layer_4" data-name="Layer 4">
      <g>
        <g>
          <path class="cls-1" d="M20.8,34.88a9,9,0,0,0,3.14,3.46,3.83,3.83,0,0,1,.4-1.91l1.35-2.7a3.85,3.85,0,0,1,6.89,3.44l-1.36,2.71a3.82,3.82,0,0,1-1.34,1.5l3,1.52a3.88,3.88,0,0,1,.4-2l3.2-6.39A3.85,3.85,0,1,1,43.39,38l-3.2,6.4a3.9,3.9,0,0,1-1.34,1.5l2.69,1.35a3.86,3.86,0,0,1,.4-2l4-7.9a3.85,3.85,0,1,1,6.88,3.45l-4,7.89a3.88,3.88,0,0,1-1.35,1.51l2.7,1.35a3.73,3.73,0,0,1,.39-2l1.35-2.71A3.85,3.85,0,1,1,58.8,50.3L57.45,53a3.74,3.74,0,0,1-1.29,1.46,6.45,6.45,0,0,0,.62.21l5.09,2.55a3.84,3.84,0,0,0,4.76-5.8,9.93,9.93,0,0,0,.61-.93l3.27,1.63A3.85,3.85,0,1,0,74,45.24l-3.24-1.63.34-.66,7.61,3.81a3.85,3.85,0,0,0,3.44-6.89l-7.64-3.82a6,6,0,0,0,.25-.71L78.06,37a4.1,4.1,0,0,0,.93.32,3.85,3.85,0,0,0,.81.55l6.1,3a3.85,3.85,0,1,0,3.44-6.88L83.25,31a3.8,3.8,0,0,0-.93-.32,3.85,3.85,0,0,0-.81-.55l-11.6-5.81a16.64,16.64,0,0,1-3-.38,15.24,15.24,0,0,1-9-5.64l-.09,0v.1l-7.5.79L50,20.58a6.67,6.67,0,0,1-7.87,5.21L40,25.35l-.27-.07.75-3.66,1.94-9.45.1,0v0L47,11.2l5-1.06v.06l4.7-.95v0l.06,0,.11,0v0l4.66,1L60.07,5.81H60l0,0-4.53-.43-5.14-.54,0,.06-4.95-.48v0L29.53,9.69"/>
          <g>
            <path class="cls-1" d="M57.08,45.13a3.86,3.86,0,0,0-5.17,1.72l-1.35,2.71A3.85,3.85,0,0,0,57.45,53l1.35-2.7A3.86,3.86,0,0,0,57.08,45.13Z"/>
            <path class="cls-1" d="M30.86,32a3.86,3.86,0,0,0-5.17,1.72l-1.35,2.7a3.85,3.85,0,1,0,6.88,3.45l1.36-2.71A3.85,3.85,0,0,0,30.86,32Z"/>
            <path class="cls-1" d="M51.05,35.62a3.85,3.85,0,0,0-5.16,1.72l-4,7.9a3.85,3.85,0,1,0,6.88,3.44l4-7.89A3.86,3.86,0,0,0,51.05,35.62Z"/>
            <path class="cls-1" d="M41.67,32.81a3.85,3.85,0,0,0-5.16,1.72l-3.2,6.39a3.85,3.85,0,1,0,6.88,3.45l3.2-6.4A3.85,3.85,0,0,0,41.67,32.81Z"/>
            <path class="cls-1" d="M86.35,9,74.13,13.08,56.83,9.26v0l-.11,0-.06,0v0L52,10.2v-.06L47,11.2l-4.5.91v0l-.1,0L39.68,25.28l.27.07,2.18.44A6.67,6.67,0,0,0,50,20.58l.28-1.43,7.5-.79,0-.19a13.5,13.5,0,0,0,4,3.68l0,0,.53.32.09,0a4.11,4.11,0,0,0,.51.27l.13.07.48.23a1.63,1.63,0,0,0,.19.09l.45.19.25.1.41.16.33.11.35.12.43.12.28.08.72.18.75.14.09,0,.66.1h.06l.71.07h0l.74,0h0l11.6,5.81a3.85,3.85,0,0,1,.81.55,3.8,3.8,0,0,1,.93.32l5.93,3,4.87-1.62"/>
          </g>
        </g>
        <rect class="cls-2" x="90.67" y="3.37" width="18.56" height="32.29" transform="translate(-1.05 32.55) rotate(-18.4)"/>
        <rect class="cls-2" x="-1.01" y="10.37" width="32.76" height="18.83" transform="translate(-8.25 28.11) rotate(-71.59)"/>
        <path class="cls-2" d="M103.38,29.11a1.81,1.81,0,1,1-1.8-1.8A1.8,1.8,0,0,1,103.38,29.11Z"/>
        <path class="cls-2" d="M16,29.11a1.81,1.81,0,1,1-1.81-1.8A1.81,1.81,0,0,1,16,29.11Z"/>
      </g>
    </g>
  </g>
</svg>
