<svg version="1.1" id="Icon" xmlns="http://www.w3.org/2000/svg" x="0px" y="0px"
	 viewBox="0 0 47 50.2" style="enable-background:new 0 0 47 50.2;" xml:space="preserve" fill="#FFF">
<path class="st0" d="M43.9,33.1c-0.2-0.1-0.3-0.1-0.5-0.2V20.1c1.7-0.4,3.1-1.7,3.5-3.4c0.6-2.4-0.8-4.7-3-5.6
	c-1.7-0.7-3.8-0.1-5,1.2c-3.1-1.8-6.3-3.6-9.4-5.4c-0.5-0.3-1-0.6-1.5-0.9c0-0.1,0-0.1,0-0.2c0.6-2.4-0.8-4.7-3-5.6
	c-2.2-0.9-4.7,0.3-5.8,2.3c-0.3,0.6-0.5,1.3-0.5,2c0,0,0,0.1,0,0.1c0,0,0,0.1,0,0.1c0,0.4,0.1,0.9,0.2,1.3c-2.3,1.3-4.5,2.6-6.8,3.9
	c-1.3,0.8-2.6,1.5-4,2.3c-0.5-0.5-1.1-1-1.8-1.2c-2.2-0.9-4.7,0.3-5.8,2.3C0.2,14,0,14.7,0,15.4c0,0,0,0.1,0,0.1c0,0,0,0.1,0,0.1
	c0.1,2.1,1.6,3.9,3.6,4.4v12.8c-1.3,0.3-2.5,1.2-3.1,2.4C0.2,36,0,36.6,0,37.4c0,0,0,0.1,0,0.1c0,0,0,0.1,0,0.1
	c0.1,2.3,1.9,4.3,4.2,4.5c1.6,0.2,3.1-0.5,4-1.6c0.5,0.3,1,0.6,1.6,0.9v7.6c0,0.6,0.5,1.1,1.1,1.1c0.6,0,1.1-0.5,1.1-1.1V40
	c0-1.9,1.5-3.4,3.4-3.4h4.4l0,1.4c0,1.1,0.9,2,2,2h3.2c1.1,0,2-0.9,2-2v-1.4h4.3c1.9,0,3.4,1.5,3.4,3.4c0,0,0,0,0,0l0.1,9.1
	c0,0.6,0.5,1.1,1.1,1.1c0,0,0,0,0,0c0.6,0,1.1-0.5,1.1-1.1l-0.1-7.3c0.2-0.1,0.4-0.3,0.7-0.4c0.4-0.2,0.9-0.5,1.3-0.7
	c0.8,0.9,1.8,1.5,3.1,1.6c2.3,0.3,4.5-1.3,5.1-3.5C47.5,36.3,46.1,33.9,43.9,33.1z M42.3,13c1.4,0,2.5,1.2,2.6,2.6
	c0,1.4-1.2,2.5-2.6,2.6c-1.4,0-2.5-1.2-2.6-2.6C39.8,14.1,40.9,13,42.3,13z M41.2,20.1v12.8c-0.1,0-0.2,0.1-0.3,0.1
	c-0.8-1.3-1.5-2.6-2.3-3.9c-0.5-0.9-1-1.7-1.5-2.6c0.2-0.3,0.3-0.6,0.5-0.9c1.1-1.9,2.2-3.7,3.2-5.6C41,20.1,41.1,20.1,41.2,20.1z
	 M39.1,18.9c-0.8,1.3-1.5,2.6-2.3,3.9c-0.3,0.5-0.6,1-0.9,1.5c-0.5-0.8-1-1.7-1.4-2.5c0-1-0.1-2-0.4-3c-0.2-0.7-0.5-1.3-0.8-2h4.5
	C38,17.7,38.5,18.4,39.1,18.9z M26.8,7.9c2.3,1.3,4.7,2.7,7,4c1.3,0.8,2.6,1.5,3.9,2.3c0,0.2-0.1,0.3-0.1,0.5h-5.8
	c-0.8-1-1.8-1.8-2.9-2.4c-0.8-1.4-1.6-2.7-2.4-4.1C26.6,8.1,26.7,8,26.8,7.9z M30.4,16.4c1.2,1.6,1.8,3.4,1.9,5.3
	c0.1,2-0.5,3.8-1.6,5.4c-1,1.4-2.6,2.7-4.2,3.3c-1.9,0.7-3.8,0.8-5.7,0.2c-3.8-1.1-6.5-4.7-6.5-8.7c0-3.8,2.5-7.3,6.1-8.5
	c1.9-0.7,3.8-0.7,5.7-0.1C27.7,13.9,29.4,15,30.4,16.4z M21.4,11c0.3-0.5,0.6-1.1,1-1.6c0.2,0,0.4,0.1,0.6,0.1
	c0.6,0.1,1.2,0,1.8-0.1c0.3,0.6,0.7,1.2,1,1.8c-0.2,0-0.3-0.1-0.5-0.1C23.9,10.7,22.6,10.7,21.4,11z M23.4,2.2
	c1.4,0,2.5,1.2,2.6,2.6c0,1.4-1.2,2.5-2.6,2.6c-1.4,0-2.5-1.2-2.6-2.6C20.8,3.3,22,2.2,23.4,2.2z M16.1,10.2L20,8
	c0.1,0.1,0.2,0.2,0.4,0.3c-0.7,1.2-1.4,2.4-2.1,3.6c-0.8,0.4-1.6,0.9-2.3,1.5c-0.5,0.4-0.9,0.8-1.2,1.2H9.4c0-0.2-0.1-0.3-0.1-0.5
	C11.5,12.9,13.8,11.6,16.1,10.2z M9.2,16.9h4.1c-0.8,1.6-1.2,3.3-1.2,5.1c0,0.2,0,0.4,0,0.6c-0.3,0.6-0.7,1.2-1,1.8
	C10,22.6,9,20.8,7.9,19C8.5,18.4,9,17.7,9.2,16.9z M8.3,23.9c0.5,0.9,1,1.7,1.5,2.6c-0.2,0.3-0.3,0.6-0.5,0.9
	c-1.1,1.9-2.1,3.7-3.2,5.6c-0.1,0-0.2-0.1-0.3-0.1V20.1c0.1,0,0.2,0,0.3-0.1C6.8,21.3,7.6,22.6,8.3,23.9z M2.2,15.5
	c0-1.4,1.1-2.5,2.6-2.6c1.4,0,2.5,1.2,2.6,2.6c0,1.4-1.2,2.5-2.6,2.6C3.3,18.1,2.2,16.9,2.2,15.5z M4.7,40c-1.4,0-2.5-1.2-2.6-2.6
	c0-1.4,1.1-2.5,2.6-2.6c1.4,0,2.5,1.2,2.6,2.6C7.3,38.9,6.1,40,4.7,40z M9.9,39c-0.2-0.1-0.4-0.2-0.6-0.4c0,0,0,0,0,0
	c0.1-0.3,0.1-0.6,0.1-0.9h0.9C10.1,38.2,10,38.6,9.9,39z M11.9,35.6H9c-0.3-0.6-0.6-1.1-1.1-1.5c0.8-1.3,1.5-2.6,2.3-3.9
	c0.3-0.5,0.6-1,0.9-1.5c1.1,1.9,2.2,3.9,3.4,5.8C13.5,34.6,12.7,35,11.9,35.6z M24.8,37.9H22l0-1.3h2.8V37.9z M30.1,34.4H16.9
	c-1.5-2.6-3-5.3-4.6-7.9c0.2-0.3,0.3-0.5,0.5-0.8c1,2.7,3,5.1,5.7,6.3c4,1.9,8.7,1.2,12.1-1.6c1.6-1.4,2.7-3.2,3.4-5.1
	c0.2,0.4,0.5,0.8,0.7,1.2C33.1,29.1,31.6,31.8,30.1,34.4z M36.7,39.2c-0.1-0.5-0.2-1-0.4-1.5h1.3c0,0.3,0.1,0.6,0.1,0.9
	C37.4,38.8,37.1,39,36.7,39.2z M38.1,35.3c0,0.1-0.1,0.2-0.1,0.3h-3.3c-0.6-0.5-1.3-0.9-2.1-1c1.1-2,2.3-3.9,3.4-5.9
	c1,1.8,2.1,3.6,3.1,5.4C38.7,34.4,38.3,34.9,38.1,35.3z M42.3,40c-1.4,0-2.5-1.2-2.6-2.6c0-1.4,1.1-2.5,2.6-2.6
	c1.4,0,2.5,1.2,2.6,2.6C44.9,38.9,43.7,40,42.3,40z M24.9,41.2h-3.2c-1.1,0-2,0.9-2,2v5.8c0,0.6,0.5,1.1,1.1,1.1
	c0.6,0,1.1-0.5,1.1-1.1v-5.7h2.8l0,5.7c0,0.6,0.5,1.1,1.1,1.1h0c0.6,0,1.1-0.5,1.1-1.1l0-5.8C26.9,42.1,26,41.2,24.9,41.2z"/>
</svg>