<svg version="1.1" xmlns="http://www.w3.org/2000/svg" x="0px" y="0px"
	 viewBox="0 0 59 38.4" style="enable-background:new 0 0 59 38.4;" xml:space="preserve" fill="#FFF">
<path class="st0" d="M10.9,23.2c-2.3-0.1-4.2,2-4.2,4.2c-0.1,2.3,2,4.2,4.2,4.2c2.3,0.1,4.1-1.9,4.2-4c0-0.1,0-0.1,0-0.2
	c0-0.1,0-0.1,0-0.2C15,25,13.2,23.3,10.9,23.2z M10.9,29.1c-0.3,0-0.3,0-0.6-0.1c0.2,0.1-0.2-0.1-0.2-0.1c-0.2-0.1-0.2-0.1-0.3-0.2
	c-0.4-0.3-0.5-0.7-0.5-1.2c0-0.3,0-0.3,0.1-0.6c-0.1,0.2,0.1-0.2,0.1-0.2c0.1-0.2,0.1-0.2,0.2-0.3c0.3-0.4,0.7-0.5,1.2-0.5
	c0.3,0,0.3,0,0.6,0.1c-0.2-0.1,0.2,0.1,0.2,0.1c0.2,0.1,0.2,0.1,0.3,0.2c0.4,0.3,0.5,0.7,0.5,1.2C12.6,28.4,11.8,29.1,10.9,29.1z
	 M34.9,30.1c-0.2-1.6-1.5-2.7-3.1-2.8c-1.8-0.1-3.1,1.5-3.2,3.2c-0.1,1.8,1.5,3.1,3.2,3.2c1.6,0.1,2.9-1.3,3.1-2.8
	c0-0.1,0-0.2,0-0.4C34.9,30.3,34.9,30.2,34.9,30.1z M31.8,31c0,0-0.1,0-0.1,0c0,0,0,0-0.1,0c0.2,0.1-0.3-0.2-0.1-0.1
	c-0.2-0.2-0.2-0.3-0.2-0.5c0,0,0-0.1,0-0.1c0,0,0,0,0-0.1c-0.1,0.2,0.2-0.3,0.1-0.1c0.2-0.2,0.3-0.2,0.5-0.2c0,0,0.1,0,0.1,0
	c0,0,0,0,0.1,0c-0.2-0.1,0.3,0.2,0.1,0.1c0.2,0.2,0.2,0.3,0.2,0.5C32.3,30.8,32.1,31,31.8,31z M24.3,19.3c-0.2-1.4-0.4-2.8-0.5-4.2
	c-0.4-2.9-0.7-5.7-1.1-8.6c-0.1-0.6-0.1-1.2-0.5-1.7c-0.7-0.9-1.6-1.1-2.6-1.1H15c-0.7,0-1.4,0-2,0.3c-1,0.4-1.5,1.4-1.5,2.4v7.8
	c0,0.7,0.6,1.3,1.3,1.3c1.4,0,2.6,0.2,3.9,0.7c0.3,0.1,0.9,0.4,1.4,0.7c0.1,0.1,0.2,0.1,0.3,0.2c0,0,0.2,0.2,0.3,0.2
	c0.2,0.1,0.4,0.3,0.5,0.4c0.3,0.3,0.6,0.6,0.9,1c0,0,0.1,0.1,0.1,0.1c0.1,0.1,0.1,0.2,0.2,0.3c0.1,0.2,0.2,0.4,0.3,0.5
	c0.2,0.3,0.4,0.7,0.5,1c0,0,0,0,0,0c0,0.1,0.1,0.1,0.1,0.2c0.1,0.1,0.1,0.3,0.1,0.4c0.1,0.2,0.2,0.5,0.4,0.6
	c0.2,0.2,0.5,0.3,0.8,0.3c0,0,0,0,0,0c1,0.1,1.9-1,1.8-2C24.4,19.9,24.3,19.6,24.3,19.3z M20.1,6.3C20,6.2,20,6.2,20.1,6.3L20.1,6.3
	z M21.2,20.7C21.3,20.8,21.3,20.8,21.2,20.7L21.2,20.7z M20.9,15.8c-1.9-1.8-4.3-2.7-6.9-2.9V6.3c0,0,0,0,0.1,0c-0.1,0,0.1,0,0.1,0
	h5.7c0,0,0.1,0,0.2,0c0,0,0,0.1,0,0.1c0.1,0.4,0.1,0.8,0.2,1.2c0.2,1.5,0.4,3,0.6,4.5c0.2,1.4,0.3,2.7,0.5,4.1
	C21.2,16.1,21.1,16,20.9,15.8z M58.6,36.2c-1.9-1.8-3.8-3.6-5.8-5.5c-0.7-0.6-1.3-1.3-2-1.9c0,0,0,0,0,0c-0.1-0.2-0.2-0.4-0.2-0.5
	c-0.3-0.6-0.6-1.2-0.8-1.8c-1.1-2.3-2.2-4.6-3.3-7c-0.2-0.4-0.7-0.6-1.1-0.6c-1,0-2.1-0.1-3.1-0.1c-0.5,0-0.9,0.2-1.1,0.6
	c-0.2,0.3-0.3,0.6-0.2,1c0.3,1.2,0.7,2.4,1,3.6c-1.4-0.8-2.8-1.7-4.2-2.5v-7.3c0-1.1-0.8-1.9-1.9-2.2c-0.5-0.2-1.1-0.1-1.6-0.1h-7
	c-0.3-2.2-0.6-4.4-0.8-6.5c-0.1-1-0.3-2.1-0.4-3.1c-0.1-0.5-0.2-0.9-0.5-1.3C25,0.3,24.2,0.1,23.4,0c-0.3,0-0.5,0-0.8,0H9.6
	c0,0-0.1,0-0.1,0c0,0,0,0,0,0C8.2,0.1,6.7,0.8,6.7,2.2v15.2c-2.8,1.2-5.1,3.6-6.2,6.6c-1.7,5,0.7,10.7,5.4,13.1
	c2.4,1.2,5.1,1.5,7.7,0.9c2.5-0.6,4.7-2.2,6.2-4.2c1-1.4,1.6-3,1.9-4.7h1c0.4,0,0.9,0,1.3,0c-0.4,2.6,0.5,5.3,2.5,7.2
	c2.4,2.2,5.8,2.6,8.7,1.3c2.8-1.2,4.6-4.2,4.6-7.2c0-1.9-0.7-3.6-1.8-5c0-0.2,0-0.4,0-0.6v-0.4c1.7,1.1,3.5,2.1,5.2,3.2
	c0,0.1,0,0.1,0.1,0.2c0.3,1.2,0.7,2.4,1,3.6c0.2,0.9,1,1.5,1.7,2.1c1,1,2,2.1,3,3.1l0.9,1c0.3,0.3,0.7,0.5,1.2,0.5
	c2.2,0.1,4.5,0.2,6.7,0.3C58.8,38.5,59.4,37,58.6,36.2z M16.8,33.4c-1.6,1.6-3.8,2.4-6,2.4c-4.6,0-8.3-4-8.2-8.6
	c0.1-4.5,4-8.1,8.5-8c4.5,0,8.2,3.9,8.2,8.3C19.3,29.7,18.4,31.8,16.8,33.4z M24.9,26.5c-0.1,0-0.2,0-0.3,0h-2.8
	c-0.4-4.9-4.1-9.1-9-9.9c-1.2-0.2-2.4-0.2-3.5,0V2.6c0.1,0,0.2,0,0.3,0h13.7c0,0,0.2,0,0.2,0c0,0,0.1,0,0.2,0c0.2,1.7,0.4,3.3,0.7,5
	c0.2,1.8,0.5,3.7,0.7,5.5c0.1,0.7,0.5,1.3,1.3,1.3h8c0.3,0,0.7,0,1,0c0,0,0.1,0,0.1,0v8.8c-2.1-1.1-4.7-1-6.8-0.1
	C27,23.9,25.7,25.1,24.9,26.5z M33.8,35.4c-0.8,0.4-2.1,0.5-3,0.3c-0.6-0.1-1-0.3-1.4-0.5c-0.6-0.3-0.9-0.5-1.3-0.9
	c-1.6-1.5-2-3.8-1.2-5.9c0.1-0.2,0.5-1,0.6-1.1c0.2-0.2,0.4-0.4,0.6-0.6c0.2-0.2,0.5-0.4,0.6-0.5c0.9-0.7,1.9-1,3-1
	c3-0.1,5.4,2.4,5.5,5.3C37.1,32.6,35.9,34.5,33.8,35.4z M50.9,28.9C51,29,50.9,29,50.9,28.9L50.9,28.9z M51.4,35.6
	c-1.6-1.6-3.2-3.3-4.8-4.9c-0.9-3.1-1.8-6.1-2.6-9.2c0.2,0,0.4,0,0.5,0c1,2.2,2.1,4.4,3.1,6.6c0.3,0.6,0.5,1.1,0.8,1.7
	c0.1,0.3,0.2,0.6,0.5,0.8c0.7,0.7,1.5,1.4,2.2,2.1c1.1,1,2.1,2,3.2,3C53.4,35.7,52.4,35.6,51.4,35.6z"/>
</svg>