<svg version="1.1" id="Isolation_Mode" xmlns="http://www.w3.org/2000/svg" x="0px"
	 y="0px" viewBox="0 0 38 48.7" style="enable-background:new 0 0 38 48.7;" xml:space="preserve" fill="#FFF">
<path class="st0" d="M17.5,27.5c0-4.2,0-8.5,0-12.7c0-3.1-1.8-5.8-4.3-7.3c0.1-0.2,0.2-0.4,0.2-0.6V5.5c0-1.1-0.7-2-1.7-2.2
	c-0.4-0.1-0.8-0.1-1.1-0.1H8.8c-0.9,0-1.9-0.1-2.9,0C4.9,3.4,4.1,4.4,4.1,5.5v1.3c0,0.2,0.1,0.4,0.2,0.6C1.8,9,0.1,11.7,0,14.8
	c0,1.3,0,2.7,0,4V40c0,4.8,3.9,8.6,8.6,8.8c2.3,0.1,4.5-0.9,6.2-2.4c1.7-1.6,2.6-3.8,2.7-6.1c0.1-1.4,0-2.7,0-4.1V27.5z M11.2,5.5
	C11.2,5.5,11.2,5.5,11.2,5.5C11.2,5.5,11.2,5.5,11.2,5.5C11.2,5.5,11.2,5.5,11.2,5.5z M11.2,5.5C11.2,5.5,11.2,5.5,11.2,5.5
	C11.2,5.5,11.2,5.5,11.2,5.5C11.2,5.5,11.2,5.5,11.2,5.5z M6.4,5.5C6.4,5.5,6.4,5.5,6.4,5.5l4.8,0c0,0,0,0,0,0c0,0,0,0.1,0,0.1v0.9
	c-0.8-0.2-1.6-0.4-2.4-0.4c-0.8,0-1.6,0.1-2.4,0.3L6.4,5.5C6.4,5.5,6.4,5.5,6.4,5.5C6.4,5.6,6.4,5.5,6.4,5.5z M6.4,5.5
	C6.4,5.5,6.4,5.5,6.4,5.5C6.4,5.5,6.4,5.5,6.4,5.5C6.3,5.5,6.4,5.5,6.4,5.5z M15.3,39.7c0,1.2-0.2,2.3-0.8,3.3
	c-1.4,2.6-4.5,3.9-7.3,3.2c-2.9-0.7-4.8-3.4-4.9-6.3v-1.6h13V39.7z M15.3,36.1h-13V18.7c0-0.2,0-0.5,0-0.7h13V36.1z M15.3,15.7h-13
	c0-0.4,0-0.8,0-1.2c0.1-1.8,1.1-3.7,2.6-4.8c1.6-1.2,3.6-1.6,5.6-1.1c1.9,0.5,3.4,1.8,4.3,3.5c0.5,0.9,0.6,2,0.6,3.1V15.7z M2.8,2.3
	h4.6c1.5,0,1.5-2.3,0-2.3H2.8C1.4,0,1.4,2.3,2.8,2.3z M9.9,2.3h4.6C16,2.3,16,0,14.6,0H9.9C8.5,0,8.5,2.3,9.9,2.3z M8,9.9
	c-2.3,0-4.1,1.8-4.1,4.1c0,1.5,2.2,1.5,2.3,0c0-1,0.8-1.8,1.8-1.8C9.5,12.1,9.5,9.8,8,9.9z"/>
<path class="st0" d="M38,27.5c0-4.2,0-8.5,0-12.7c0-3.1-1.8-5.8-4.3-7.3c0.1-0.2,0.2-0.4,0.2-0.6V5.5c0-1.1-0.7-2-1.7-2.2
	c-0.4-0.1-0.8-0.1-1.1-0.1h-1.8c-0.9,0-1.9-0.1-2.9,0c-1.1,0.2-1.8,1.2-1.8,2.2v1.3c0,0.2,0.1,0.4,0.2,0.6c-2.5,1.5-4.2,4.3-4.3,7.4
	c0,1.3,0,2.7,0,4V40c0,4.8,3.9,8.6,8.6,8.8c2.3,0.1,4.5-0.9,6.2-2.4c1.7-1.6,2.6-3.8,2.7-6.1c0.1-1.4,0-2.7,0-4.1V27.5z M31.6,5.5
	C31.6,5.5,31.6,5.5,31.6,5.5C31.6,5.5,31.6,5.5,31.6,5.5C31.6,5.5,31.6,5.5,31.6,5.5z M31.6,5.5C31.6,5.5,31.6,5.5,31.6,5.5
	C31.6,5.5,31.6,5.5,31.6,5.5C31.6,5.5,31.6,5.5,31.6,5.5z M26.8,5.5C26.8,5.5,26.8,5.5,26.8,5.5l4.8,0c0,0,0,0,0,0c0,0,0,0.1,0,0.1
	v0.9c-0.8-0.2-1.6-0.4-2.4-0.4c-0.8,0-1.6,0.1-2.4,0.3L26.8,5.5C26.8,5.5,26.8,5.5,26.8,5.5C26.8,5.6,26.8,5.5,26.8,5.5z M26.8,5.5
	C26.8,5.5,26.8,5.5,26.8,5.5C26.8,5.5,26.8,5.5,26.8,5.5C26.8,5.5,26.8,5.5,26.8,5.5z M35.7,39.7c0,1.2-0.2,2.3-0.8,3.3
	c-1.4,2.6-4.5,3.9-7.3,3.2c-2.9-0.7-4.8-3.4-4.9-6.3v-1.6h13V39.7z M35.7,36.1h-13V18.7c0-0.2,0-0.5,0-0.7h13V36.1z M35.7,15.7h-13
	c0-0.4,0-0.8,0-1.2c0.1-1.8,1.1-3.7,2.6-4.8c1.6-1.2,3.6-1.6,5.6-1.1c1.9,0.5,3.4,1.8,4.3,3.5c0.5,0.9,0.6,2,0.6,3.1V15.7z
	 M23.3,2.3h4.6c1.5,0,1.5-2.3,0-2.3h-4.6C21.8,0,21.8,2.3,23.3,2.3z M30.4,2.3H35c1.5,0,1.5-2.3,0-2.3h-4.6
	C28.9,0,28.9,2.3,30.4,2.3z M28.4,9.9c-2.3,0-4.1,1.8-4.1,4.1c0,1.5,2.2,1.5,2.3,0c0-1,0.8-1.8,1.8-1.8C29.9,12.1,29.9,9.8,28.4,9.9
	z"/>
</svg>